<svg width="66" height="44" viewBox="0 0 66 44" xmlns="http://www.w3.org/2000/svg">
<path d="M21.6872 17.7877H12.0644C10.9584 17.7884 9.89528 17.3601 9.09877 16.5928C8.30226 15.8255 7.8345 14.7791 7.79395 13.6738V13.3891C7.79395 6.27171 11.8509 0.364258 16.8331 0.364258C21.8153 0.364258 25.8864 6.21477 25.8864 13.3891V13.6738C25.8465 14.7669 25.3886 15.8029 24.6073 16.5683C23.826 17.3338 22.7808 17.7702 21.6872 17.7877ZM16.8758 2.44253C13.0324 2.44253 9.91493 7.35356 9.91493 13.3891V13.6453C9.93347 14.2017 10.1685 14.7288 10.57 15.1144C10.9716 15.4999 11.5078 15.7134 12.0644 15.7094H21.6872C22.2452 15.7135 22.783 15.5005 23.1867 15.1153C23.5905 14.7301 23.8287 14.203 23.8508 13.6453V13.3891C23.8508 7.35356 20.7476 2.44253 16.8758 2.44253Z" />
<path d="M18.5132 13.5885H15.2534C14.7386 13.5886 14.2447 13.385 13.8794 13.0224C13.5141 12.6597 13.307 12.1673 13.3032 11.6526V8.39279C13.3069 7.87673 13.5136 7.38289 13.8785 7.01796C14.2435 6.65304 14.7373 6.44635 15.2534 6.44263H18.5132C19.0279 6.44638 19.5203 6.65351 19.883 7.01883C20.2456 7.38415 20.4491 7.87803 20.4491 8.39279V11.6526C20.4491 12.166 20.2451 12.6584 19.8821 13.0215C19.519 13.3846 19.0266 13.5885 18.5132 13.5885ZM15.3815 11.5102H18.3708V8.52094H15.3815V11.5102Z" />
<path d="M16.8756 8.52078C16.6 8.52078 16.3357 8.41126 16.1408 8.21638C15.9459 8.02151 15.8364 7.75722 15.8364 7.48162V6.30015C15.8364 6.02455 15.9459 5.76021 16.1408 5.56534C16.3357 5.37046 16.6 5.26099 16.8756 5.26099C17.1512 5.26099 17.4155 5.37046 17.6104 5.56534C17.8052 5.76021 17.9147 6.02455 17.9147 6.30015V7.52432C17.9037 7.79245 17.7894 8.0459 17.5957 8.23163C17.402 8.41737 17.1439 8.521 16.8756 8.52078Z" />
<path d="M16.8756 14.3428C16.6 14.3428 16.3357 14.2333 16.1408 14.0384C15.9459 13.8435 15.8364 13.5792 15.8364 13.3036V12.5492C15.8364 12.2736 15.9459 12.0093 16.1408 11.8144C16.3357 11.6195 16.6 11.51 16.8756 11.51C17.1512 11.51 17.4155 11.6195 17.6104 11.8144C17.8052 12.0093 17.9147 12.2736 17.9147 12.5492V13.3036C17.9147 13.5792 17.8052 13.8435 17.6104 14.0384C17.4155 14.2333 17.1512 14.3428 16.8756 14.3428Z" />
<path d="M37.7013 17.7877H28.0786C26.9726 17.7884 25.9094 17.3601 25.1129 16.5928C24.3164 15.8255 23.8487 14.7791 23.8081 13.6738V13.3891C23.8081 6.27171 27.865 0.364258 32.8472 0.364258C37.8294 0.364258 41.9006 6.21477 41.9006 13.3891V13.688C41.8571 14.7786 41.3977 15.8111 40.6167 16.5735C39.8358 17.3359 38.7926 17.7704 37.7013 17.7877ZM32.8899 2.44253C29.0465 2.44253 25.9291 7.35356 25.9291 13.3891V13.6453C25.9476 14.2017 26.1827 14.7288 26.5842 15.1144C26.9857 15.4999 27.5219 15.7134 28.0786 15.7094H37.7013C38.2593 15.7135 38.7971 15.5005 39.2009 15.1153C39.6047 14.7301 39.8428 14.203 39.865 13.6453V13.3891C39.865 7.35356 36.7333 2.44253 32.8899 2.44253Z" />
<path d="M34.527 13.5885H31.2672C31.0094 13.5942 30.7531 13.5484 30.5132 13.4536C30.2734 13.3589 30.0549 13.2172 29.8706 13.0368C29.6863 12.8565 29.5399 12.6411 29.4399 12.4034C29.34 12.1657 29.2885 11.9104 29.2886 11.6526V8.39279C29.2886 7.87803 29.4921 7.38415 29.8547 7.01883C30.2174 6.65351 30.7098 6.44638 31.2245 6.44263H34.4843C34.9966 6.45011 35.4853 6.65886 35.8449 7.02378C36.2045 7.38871 36.406 7.88047 36.406 8.39279V11.6526C36.4062 12.1563 36.2101 12.6403 35.8593 13.0018C35.5084 13.3632 35.0305 13.5737 34.527 13.5885ZM31.3953 11.5102H34.3846V8.52094H31.3953V11.5102Z" />
<path d="M32.8897 8.52078C32.6141 8.52078 32.3498 8.41126 32.1549 8.21638C31.9601 8.02151 31.8506 7.75722 31.8506 7.48162V6.30015C31.8506 6.02455 31.9601 5.76021 32.1549 5.56534C32.3498 5.37046 32.6141 5.26099 32.8897 5.26099C33.1653 5.26099 33.4296 5.37046 33.6245 5.56534C33.8194 5.76021 33.9289 6.02455 33.9289 6.30015V7.52432C33.9178 7.79245 33.8035 8.0459 33.6098 8.23163C33.4161 8.41737 33.1581 8.521 32.8897 8.52078Z" />
<path d="M32.8897 14.3428C32.6141 14.3428 32.3498 14.2333 32.1549 14.0384C31.9601 13.8435 31.8506 13.5792 31.8506 13.3036V12.5492C31.8506 12.2736 31.9601 12.0093 32.1549 11.8144C32.3498 11.6195 32.6141 11.51 32.8897 11.51C33.1653 11.51 33.4296 11.6195 33.6245 11.8144C33.8194 12.0093 33.9289 12.2736 33.9289 12.5492V13.3036C33.9289 13.5792 33.8194 13.8435 33.6245 14.0384C33.4296 14.2333 33.1653 14.3428 32.8897 14.3428Z" />
<path d="M53.7155 17.7877H44.0927C42.9867 17.7884 41.9236 17.3601 41.1271 16.5928C40.3306 15.8255 39.8628 14.7791 39.8223 13.6738V13.3891C39.8223 6.27171 43.8792 0.364258 48.8614 0.364258C53.8436 0.364258 57.9147 6.21477 57.9147 13.3891V13.688C57.8712 14.7786 57.4118 15.8111 56.6309 16.5735C55.8499 17.3359 54.8067 17.7704 53.7155 17.7877ZM48.9041 2.44253C45.0607 2.44253 41.9433 7.35356 41.9433 13.3891V13.6453C41.9618 14.2017 42.1969 14.7288 42.5984 15.1144C42.9999 15.4999 43.5361 15.7134 44.0927 15.7094H53.7155C54.2735 15.7135 54.8113 15.5005 55.2151 15.1153C55.6189 14.7301 55.857 14.203 55.8792 13.6453V13.3891C55.8792 7.35356 52.7475 2.44253 48.9041 2.44253Z" />
<path d="M50.5409 13.5885H47.2812C46.7677 13.5885 46.2753 13.3846 45.9122 13.0215C45.5492 12.6584 45.3452 12.166 45.3452 11.6526V8.39279C45.3452 7.87803 45.5487 7.38415 45.9114 7.01883C46.274 6.65351 46.7664 6.44638 47.2812 6.44263H50.5409C51.0557 6.44638 51.5481 6.65351 51.9107 7.01883C52.2734 7.38415 52.4769 7.87803 52.4769 8.39279V11.6526C52.4769 12.166 52.2729 12.6584 51.9098 13.0215C51.5468 13.3846 51.0544 13.5885 50.5409 13.5885ZM47.4093 11.5102H50.3986V8.52094H47.4093V11.5102Z" />
<path d="M48.9044 8.52078C48.6288 8.52078 48.3645 8.41126 48.1696 8.21638C47.9747 8.02151 47.8652 7.75722 47.8652 7.48162V6.30015C47.8652 6.02455 47.9747 5.76021 48.1696 5.56534C48.3645 5.37046 48.6288 5.26099 48.9044 5.26099C49.18 5.26099 49.4443 5.37046 49.6392 5.56534C49.834 5.76021 49.9435 6.02455 49.9435 6.30015V7.52432C49.9325 7.79245 49.8182 8.0459 49.6245 8.23163C49.4308 8.41737 49.1727 8.521 48.9044 8.52078Z" />
<path d="M48.9044 14.3428C48.6288 14.3428 48.3645 14.2333 48.1696 14.0384C47.9747 13.8435 47.8652 13.5792 47.8652 13.3036V12.5492C47.8652 12.2736 47.9747 12.0093 48.1696 11.8144C48.3645 11.6195 48.6288 11.51 48.9044 11.51C49.18 11.51 49.4443 11.6195 49.6392 11.8144C49.834 12.0093 49.9435 12.2736 49.9435 12.5492V13.3036C49.9435 13.5792 49.834 13.8435 49.6392 14.0384C49.4443 14.2333 49.18 14.3428 48.9044 14.3428Z" />
<path d="M35.4239 11.0405C35.1527 11.0366 34.8931 10.9298 34.6979 10.7415C34.4998 10.5459 34.3872 10.2797 34.3847 10.0013V8.57782H31.3954V10.0013C31.391 10.2766 31.2844 10.5404 31.0965 10.7415C30.9982 10.8408 30.8804 10.9186 30.7506 10.97C30.6207 11.0215 30.4816 11.0455 30.342 11.0405C26.4986 11.0405 22.7833 10.8269 19.3243 10.5565C19.0637 10.535 18.8208 10.4161 18.6441 10.2235C18.4673 10.0309 18.3696 9.77874 18.3705 9.51732V8.52091H15.3812V9.01909C15.3844 9.16637 15.3558 9.31263 15.2974 9.44786C15.239 9.58309 15.1521 9.70415 15.0427 9.80277C14.9333 9.90139 14.8039 9.97524 14.6633 10.0193C14.5227 10.0634 14.3743 10.0767 14.2282 10.0583C0.705078 8.42125 0.705078 5.9017 0.705078 4.9622C0.734823 4.70937 0.856345 4.47623 1.04658 4.30706C1.23682 4.13789 1.48253 4.04446 1.7371 4.04446C1.99168 4.04446 2.2374 4.13789 2.42763 4.30706C2.61787 4.47623 2.73939 4.70937 2.76914 4.9622C3.01113 5.44618 5.34564 6.84119 13.3883 7.89457C13.5005 7.48591 13.7437 7.12533 14.0805 6.86819C14.4174 6.61105 14.8293 6.47155 15.2531 6.47109H18.5129C19.0276 6.47485 19.52 6.68197 19.8827 7.04729C20.2453 7.41262 20.4488 7.90649 20.4488 8.42125V8.59207C23.2958 8.79135 26.2424 8.91945 29.3313 8.97639V8.42125C29.3313 7.90649 29.5348 7.41262 29.8975 7.04729C30.2601 6.68197 30.7525 6.47485 31.2673 6.47109H34.5271C35.027 6.4893 35.5007 6.69888 35.8505 7.05655C36.2002 7.41421 36.3991 7.89258 36.4061 8.39276V8.94794C39.4808 8.94794 42.4701 8.7629 45.2886 8.56361V8.39276C45.2886 7.878 45.4921 7.38412 45.8547 7.0188C46.2174 6.65347 46.7098 6.44635 47.2245 6.44259H50.4843C50.9075 6.4454 51.3183 6.58581 51.6547 6.8426C51.9911 7.09938 52.2348 7.4586 52.3491 7.86608C60.4772 6.79846 62.769 5.38925 62.9683 4.9195C62.9683 4.78557 62.9949 4.65295 63.0465 4.52939C63.0982 4.40584 63.1739 4.2938 63.2693 4.19976C63.3647 4.10572 63.4778 4.03155 63.602 3.9816C63.7263 3.93165 63.8593 3.90691 63.9932 3.90879C64.1315 3.91065 64.2681 3.93975 64.3952 3.99441C64.5223 4.04907 64.6374 4.12825 64.7339 4.22739C64.8304 4.32653 64.9064 4.4437 64.9576 4.57223C65.0088 4.70075 65.0342 4.83807 65.0323 4.9764C65.0323 5.9159 65.0323 8.4355 51.5092 10.0725C51.3628 10.0884 51.2147 10.0735 51.0745 10.0286C50.9342 9.98377 50.8049 9.90999 50.6949 9.81207C50.5849 9.71415 50.4967 9.59424 50.4359 9.46011C50.3751 9.32598 50.3431 9.1806 50.342 9.03334V8.53511H47.3527V9.53157C47.3535 9.79299 47.2559 10.0451 47.0791 10.2377C46.9023 10.4303 46.6594 10.5492 46.3989 10.5707C42.9398 10.8412 39.2815 10.9978 35.3811 11.0547L35.4239 11.0405Z" />
<path d="M16.8755 43.1114C11.8934 43.1114 7.83643 37.2609 7.83643 30.0865V29.8018C7.87698 28.6966 8.34474 27.6502 9.14125 26.8829C9.93776 26.1156 11.0009 25.6872 12.1069 25.688H21.7296C22.8332 25.6871 23.8943 26.1135 24.6905 26.8778C25.4866 27.642 25.9559 28.6849 26.0001 29.7876V30.0865C25.9289 37.2609 21.872 43.1114 16.8755 43.1114ZM12.0642 27.7663C11.5075 27.7622 10.9713 27.9758 10.5698 28.3613C10.1683 28.7469 9.93325 29.274 9.91471 29.8303V30.0865C9.91471 36.1221 13.0321 41.0331 16.8755 41.0331C20.719 41.0331 23.8506 36.1221 23.8506 30.0865V29.8303C23.8285 29.2727 23.5903 28.7456 23.1865 28.3604C22.7827 27.9752 22.245 27.7621 21.6869 27.7663H12.0642Z" />
<path d="M18.5132 37.0189H15.2534C14.7386 37.0189 14.2447 36.8154 13.8794 36.4527C13.5141 36.09 13.307 35.5977 13.3032 35.0829V31.8232C13.307 31.3084 13.5141 30.816 13.8794 30.4534C14.2447 30.0907 14.7386 29.8872 15.2534 29.8872H18.5132C19.0266 29.8872 19.519 30.0912 19.8821 30.4542C20.2451 30.8173 20.4491 31.3097 20.4491 31.8232V35.0829C20.4491 35.5964 20.2451 36.0888 19.8821 36.4518C19.519 36.8149 19.0266 37.0189 18.5132 37.0189ZM15.3815 34.9548H18.3708V31.9655H15.3815V34.9548Z" />
<path d="M16.8758 38.2145C16.7394 38.2145 16.6043 38.1876 16.4782 38.1354C16.3521 38.0831 16.2376 38.0066 16.1411 37.9101C16.0446 37.8136 15.968 37.699 15.9158 37.573C15.8636 37.4469 15.8367 37.3118 15.8367 37.1753V35.9938C15.8196 35.8481 15.8335 35.7004 15.8775 35.5605C15.9215 35.4206 15.9947 35.2915 16.0922 35.1819C16.1897 35.0722 16.3093 34.9845 16.4431 34.9244C16.577 34.8643 16.722 34.8333 16.8687 34.8333C17.0154 34.8333 17.1605 34.8643 17.2943 34.9244C17.4282 34.9845 17.5478 35.0722 17.6453 35.1819C17.7427 35.2915 17.8159 35.4206 17.86 35.5605C17.904 35.7004 17.9179 35.8481 17.9008 35.9938V37.1753C17.9008 37.4485 17.7933 37.7106 17.6014 37.9051C17.4096 38.0996 17.149 38.2107 16.8758 38.2145Z" />
<path d="M16.8756 31.9656C16.6 31.9656 16.3357 31.8561 16.1408 31.6612C15.9459 31.4663 15.8364 31.202 15.8364 30.9264V30.172C15.8364 30.0355 15.8633 29.9004 15.9155 29.7743C15.9677 29.6482 16.0443 29.5337 16.1408 29.4372C16.2373 29.3407 16.3518 29.2641 16.4779 29.2119C16.604 29.1597 16.7391 29.1328 16.8756 29.1328C17.012 29.1328 17.1471 29.1597 17.2732 29.2119C17.3993 29.2641 17.5139 29.3407 17.6104 29.4372C17.7068 29.5337 17.7834 29.6482 17.8356 29.7743C17.8878 29.9004 17.9147 30.0355 17.9147 30.172V30.9264C17.9147 31.202 17.8052 31.4663 17.6104 31.6612C17.4155 31.8561 17.1512 31.9656 16.8756 31.9656Z" />
<path d="M32.8897 43.1114C27.9075 43.1114 23.8506 37.2609 23.8506 30.0865V29.8018C23.8911 28.6966 24.3589 27.6502 25.1554 26.8829C25.9519 26.1156 27.0151 25.6872 28.121 25.688H37.7438C38.8474 25.6871 39.9085 26.1135 40.7046 26.8778C41.5008 27.642 41.9701 28.6849 42.0142 29.7876V30.0865C41.9431 37.2609 37.8292 43.1114 32.8897 43.1114ZM28.0783 27.7663C27.5217 27.7622 26.9855 27.9758 26.584 28.3613C26.1825 28.7469 25.9474 29.274 25.9289 29.8303V30.0865C25.9289 36.1221 29.0463 41.0331 32.8897 41.0331C36.7331 41.0331 39.8648 36.1221 39.8648 30.0865V29.8303C39.8426 29.2727 39.6045 28.7456 39.2007 28.3604C38.7969 27.9752 38.2591 27.7621 37.7011 27.7663H28.0783Z" />
<path d="M34.527 37.0189H31.2672C31.0094 37.0246 30.7531 36.9787 30.5132 36.8839C30.2734 36.7892 30.0549 36.6475 29.8706 36.4672C29.6863 36.2868 29.5399 36.0715 29.4399 35.8338C29.34 35.5961 29.2885 35.3408 29.2886 35.0829V31.8232C29.2886 31.3097 29.4925 30.8173 29.8556 30.4542C30.2187 30.0912 30.7111 29.8872 31.2245 29.8872H34.4843C34.9953 29.891 35.484 30.0966 35.844 30.4592C36.204 30.8219 36.406 31.3122 36.406 31.8232V35.0829C36.4062 35.5866 36.2101 36.0706 35.8593 36.4321C35.5084 36.7936 35.0305 37.0041 34.527 37.0189ZM31.3953 34.9548H34.3846V31.9655H31.3953V34.9548Z" />
<path d="M32.8897 38.2149C32.7533 38.2149 32.6181 38.188 32.4921 38.1358C32.366 38.0835 32.2514 38.007 32.1549 37.9105C32.0584 37.814 31.9819 37.6994 31.9297 37.5734C31.8775 37.4473 31.8506 37.3122 31.8506 37.1757V35.9942C31.8506 35.8578 31.8775 35.7227 31.9297 35.5966C31.9819 35.4705 32.0584 35.356 32.1549 35.2595C32.2514 35.163 32.366 35.0864 32.4921 35.0342C32.6181 34.982 32.7533 34.9551 32.8897 34.9551C33.0262 34.9551 33.1613 34.982 33.2874 35.0342C33.4135 35.0864 33.528 35.163 33.6245 35.2595C33.721 35.356 33.7975 35.4705 33.8498 35.5966C33.902 35.7227 33.9289 35.8578 33.9289 35.9942V37.1757C33.9289 37.3122 33.902 37.4473 33.8498 37.5734C33.7975 37.6994 33.721 37.814 33.6245 37.9105C33.528 38.007 33.4135 38.0835 33.2874 38.1358C33.1613 38.188 33.0262 38.2149 32.8897 38.2149Z" />
<path d="M32.8897 31.9656C32.6141 31.9656 32.3498 31.8561 32.1549 31.6612C31.9601 31.4663 31.8506 31.202 31.8506 30.9264V30.172C31.8506 30.0355 31.8775 29.9004 31.9297 29.7743C31.9819 29.6482 32.0584 29.5337 32.1549 29.4372C32.2514 29.3407 32.366 29.2641 32.4921 29.2119C32.6181 29.1597 32.7533 29.1328 32.8897 29.1328C33.0262 29.1328 33.1613 29.1597 33.2874 29.2119C33.4135 29.2641 33.528 29.3407 33.6245 29.4372C33.721 29.5337 33.7975 29.6482 33.8498 29.7743C33.902 29.9004 33.9289 30.0355 33.9289 30.172V30.9264C33.9289 31.202 33.8194 31.4663 33.6245 31.6612C33.4296 31.8561 33.1653 31.9656 32.8897 31.9656Z" />
<path d="M48.9039 43.1114C43.9217 43.1114 39.8647 37.2609 39.8647 30.0865V29.7876C39.9089 28.6849 40.3782 27.642 41.1744 26.8778C41.9705 26.1135 43.0316 25.6871 44.1352 25.688H53.758C54.8616 25.6871 55.9227 26.1135 56.7188 26.8778C57.5149 27.642 57.9843 28.6849 58.0284 29.7876V30.0865C57.9572 37.2609 53.9003 43.1114 48.9039 43.1114ZM44.0925 27.7663C43.5359 27.7622 42.9997 27.9758 42.5981 28.3613C42.1966 28.7469 41.9616 29.274 41.943 29.8303V30.0865C41.943 36.1221 45.0605 41.0331 48.9039 41.0331C52.7473 41.0331 55.8789 36.1221 55.8789 30.0865V29.8303C55.8568 29.2727 55.6186 28.7456 55.2148 28.3604C54.8111 27.9752 54.2733 27.7621 53.7153 27.7663H44.0925Z" />
<path d="M50.5409 37.0189H47.2812C46.7677 37.0189 46.2753 36.8149 45.9122 36.4518C45.5492 36.0888 45.3452 35.5964 45.3452 35.0829V31.8232C45.3452 31.3097 45.5492 30.8173 45.9122 30.4542C46.2753 30.0912 46.7677 29.8872 47.2812 29.8872H50.5409C51.0544 29.8872 51.5468 30.0912 51.9098 30.4542C52.2729 30.8173 52.4769 31.3097 52.4769 31.8232V35.0829C52.4769 35.5964 52.2729 36.0888 51.9098 36.4518C51.5468 36.8149 51.0544 37.0189 50.5409 37.0189ZM47.4093 34.9548H50.3986V31.9655H47.4093V34.9548Z" />
<path d="M48.9044 38.2149C48.7679 38.2149 48.6328 38.188 48.5067 38.1358C48.3806 38.0835 48.2661 38.007 48.1696 37.9105C48.0731 37.814 47.9966 37.6994 47.9443 37.5734C47.8921 37.4473 47.8652 37.3122 47.8652 37.1757V35.9942C47.8652 35.7186 47.9747 35.4543 48.1696 35.2595C48.3645 35.0646 48.6288 34.9551 48.9044 34.9551C49.18 34.9551 49.4443 35.0646 49.6392 35.2595C49.834 35.4543 49.9435 35.7186 49.9435 35.9942V37.1757C49.9435 37.3122 49.9166 37.4473 49.8644 37.5734C49.8122 37.6994 49.7357 37.814 49.6392 37.9105C49.5427 38.007 49.4281 38.0835 49.302 38.1358C49.176 38.188 49.0408 38.2149 48.9044 38.2149Z" />
<path d="M48.9044 31.9656C48.6288 31.9656 48.3645 31.8561 48.1696 31.6612C47.9747 31.4663 47.8652 31.202 47.8652 30.9264V30.172C47.8652 29.8964 47.9747 29.632 48.1696 29.4372C48.3645 29.2423 48.6288 29.1328 48.9044 29.1328C49.18 29.1328 49.4443 29.2423 49.6392 29.4372C49.834 29.632 49.9435 29.8964 49.9435 30.172V30.9264C49.9435 31.202 49.834 31.4663 49.6392 31.6612C49.4443 31.8561 49.18 31.9656 48.9044 31.9656Z" />
<path d="M1.73009 39.5811C1.4532 39.5736 1.19039 39.4574 0.99856 39.2576C0.806735 39.0578 0.701336 38.7904 0.70518 38.5135C0.70518 37.574 0.70518 35.0544 14.2283 33.4174C14.3744 33.399 14.5228 33.4123 14.6634 33.4564C14.804 33.5004 14.9334 33.5743 15.0428 33.6729C15.1522 33.7715 15.2391 33.8926 15.2975 34.0278C15.3559 34.1631 15.3845 34.3093 15.3813 34.4566V34.9548H18.3706V33.9584C18.3697 33.6969 18.4674 33.4448 18.6442 33.2522C18.8209 33.0596 19.0638 32.9407 19.3244 32.9192C22.7834 32.6487 26.4418 32.4922 30.3421 32.4352C30.4817 32.4302 30.6208 32.4542 30.7507 32.5056C30.8805 32.5571 30.9983 32.6349 31.0966 32.7341C31.2869 32.9337 31.3939 33.1986 31.3955 33.4744V34.8979H34.3848V33.4744C34.3852 33.3364 34.4132 33.1999 34.4669 33.0728C34.5207 32.9457 34.5992 32.8305 34.698 32.7341C34.7941 32.636 34.9095 32.5588 35.0368 32.5073C35.1642 32.4559 35.3009 32.4313 35.4382 32.4352C39.2958 32.4352 43.0111 32.6487 46.456 32.9192C46.7165 32.9407 46.9594 33.0596 47.1361 33.2522C47.3129 33.4448 47.4106 33.6969 47.4097 33.9584V34.9548H50.399V34.4566C50.4001 34.3093 50.4321 34.1639 50.4929 34.0298C50.5537 33.8956 50.6419 33.7758 50.7519 33.6779C50.8619 33.5799 50.9912 33.5062 51.1315 33.4613C51.2717 33.4164 51.4199 33.4015 51.5663 33.4174C65.0894 35.0544 65.0894 37.574 65.0894 38.5135C65.0894 38.7891 64.9799 39.0534 64.785 39.2483C64.5901 39.4432 64.3258 39.5526 64.0502 39.5526C63.7746 39.5526 63.5103 39.4432 63.3154 39.2483C63.1205 39.0534 63.0111 38.7891 63.0111 38.5135C62.826 38.1007 60.5342 36.6914 52.4061 35.6665C52.2939 36.0752 52.0508 36.4358 51.7139 36.6929C51.3771 36.95 50.9651 37.0895 50.5414 37.09H47.2816C46.7681 37.09 46.2757 36.8861 45.9127 36.523C45.5496 36.1599 45.3456 35.6675 45.3456 35.1541V34.9833C42.4987 34.784 39.5521 34.6558 36.4631 34.5989V35.1541C36.4631 35.6675 36.2591 36.1599 35.8961 36.523C35.533 36.8861 35.0406 37.09 34.5272 37.09H31.2674C31.0035 37.096 30.7411 37.048 30.4965 36.9489C30.2518 36.8497 30.03 36.7016 29.8447 36.5137C29.6594 36.3257 29.5145 36.1018 29.4188 35.8557C29.3232 35.6097 29.279 35.3467 29.2887 35.0829V34.5704C26.1998 34.5704 23.2247 34.7555 20.4062 34.9548V35.1256C20.4062 35.6391 20.2022 36.1314 19.8392 36.4945C19.4761 36.8576 18.9837 37.0615 18.4703 37.0615H15.2532C14.8294 37.0611 14.4175 36.9216 14.0806 36.6644C13.7438 36.4073 13.5006 36.0467 13.3884 35.6381C5.26033 36.7057 2.95429 38.1149 2.76924 38.5847C2.7674 38.7186 2.73895 38.8509 2.68555 38.9737C2.63215 39.0966 2.55486 39.2076 2.45817 39.3003C2.36147 39.3931 2.24731 39.4656 2.12232 39.5138C1.99733 39.562 1.864 39.5849 1.73009 39.5811Z" />
</svg>
