<svg width="24" height="25" viewBox="0 0 24 25" xmlns="http://www.w3.org/2000/svg">
<path d="M19 22.9277H5C3.89543 22.9277 3 22.0323 3 20.9277V6.92773C3 5.82316 3.89543 4.92773 5 4.92773H7V2.92773H9V4.92773H15V2.92773H17V4.92773H19C20.1046 4.92773 21 5.82316 21 6.92773V20.9277C21 22.0323 20.1046 22.9277 19 22.9277ZM5 10.9277V20.9277H19V10.9277H5ZM5 6.92773V8.92773H19V6.92773H5ZM17 18.9277H15V16.9277H17V18.9277ZM13 18.9277H11V16.9277H13V18.9277ZM9 18.9277H7V16.9277H9V18.9277ZM17 14.9277H15V12.9277H17V14.9277ZM13 14.9277H11V12.9277H13V14.9277ZM9 14.9277H7V12.9277H9V14.9277Z" />
</svg>
