<svg width="30" height="40" viewBox="0 0 30 40" xmlns="http://www.w3.org/2000/svg">
<path d="M29.2538 19.7077H24.8488L23.1435 12.6214C23.0754 12.3383 22.8221 12.1387 22.5309 12.1387H8.61713L6.37406 0.765842C6.30726 0.426799 5.97914 0.205811 5.6401 0.26841L1.43251 1.05447C1.09053 1.11833 0.86492 1.44771 0.928779 1.78969L5.21871 24.7657C5.26282 25.003 5.43928 25.1946 5.67287 25.2581C5.72748 25.2728 5.78336 25.2803 5.8384 25.2803C5.9031 25.2803 5.9657 25.2673 6.02662 25.248H18.094V34.232H9.99515C9.64686 34.232 9.36496 34.5143 9.36496 34.8622V39.0505C9.36496 39.3983 9.64686 39.6806 9.99515 39.6806H27.4498C27.7977 39.6806 28.08 39.3983 28.08 39.0505V34.8622C28.08 34.5143 27.7977 34.232 27.4498 34.232H19.3543V25.2476H29.2534C29.6013 25.2476 29.8836 24.9652 29.8836 24.6174V20.3379C29.884 19.9897 29.6017 19.7077 29.2538 19.7077ZM26.8196 38.4203H10.6253V35.4924H26.8196V38.4203ZM22.0348 13.3991L23.5527 19.7077H10.1103L8.86584 13.3991H22.0348ZM2.28369 2.17747L5.2582 1.62206L8.91416 20.1569L6.21861 23.2532L2.28369 2.17747ZM28.6236 23.9872H7.25087L9.87919 20.9677H28.6236V23.9872Z" />
</svg>
