<svg width="59" height="66" viewBox="0 0 59 66" xmlns="http://www.w3.org/2000/svg">
<path d="M36.6741 9.47982H36.3889C33.5826 8.74781 30.977 7.3937 28.7651 5.51782C28.6502 5.42207 28.5562 5.30382 28.4888 5.17036C28.4214 5.0369 28.382 4.89105 28.373 4.74179C28.3641 4.59254 28.3858 4.44304 28.4369 4.3025C28.4879 4.16195 28.5671 4.03333 28.6697 3.92457C28.7723 3.81581 28.8961 3.72919 29.0335 3.67008C29.1708 3.61096 29.3188 3.58058 29.4683 3.58081C29.6178 3.58104 29.7657 3.61187 29.9029 3.67141C30.04 3.73096 30.1636 3.81793 30.2659 3.92701C32.2176 5.53494 34.4967 6.69757 36.9442 7.33374C37.1948 7.40765 37.4108 7.56871 37.5531 7.78786C37.6954 8.00701 37.7548 8.26981 37.7203 8.52884C37.6859 8.78787 37.56 9.02606 37.3654 9.20044C37.1708 9.37482 36.9203 9.47391 36.6591 9.47982H36.6741Z" />
<path d="M53.0179 25.2227H52.9428C52.6547 25.1997 52.3873 25.0638 52.199 24.8445C52.0106 24.6252 51.9166 24.3404 51.9373 24.0521C52.1924 20.5404 52.1924 18.2742 52.1924 18.2442C52.1924 9.55481 45.9793 2.47123 38.3555 2.47123C35.3738 2.47464 32.4906 3.53856 30.2214 5.47275C30.0214 5.63352 29.7726 5.72117 29.516 5.72117C29.2594 5.72117 29.0106 5.63352 28.8106 5.47275C26.5414 3.53856 23.6582 2.47464 20.6765 2.47123C13.0527 2.47123 6.83955 9.55481 6.83955 18.2442C6.83955 18.2442 6.83956 20.4053 7.07968 23.767C7.10454 23.9176 7.09767 24.0717 7.0595 24.2194C7.02134 24.3672 6.95272 24.5054 6.85806 24.6251C6.76339 24.7448 6.64475 24.8434 6.50975 24.9146C6.37476 24.9857 6.22638 25.0279 6.07413 25.0384C5.92188 25.0489 5.7691 25.0275 5.62562 24.9755C5.48213 24.9235 5.35108 24.8422 5.24088 24.7366C5.13067 24.631 5.04375 24.5036 4.98566 24.3625C4.92757 24.2213 4.8996 24.0696 4.90356 23.9171C4.64843 20.4803 4.64844 18.3342 4.64844 18.2442C4.64844 8.3392 11.8371 0.235107 20.6765 0.235107C23.8717 0.243669 26.9762 1.29784 29.516 3.23662C32.0557 1.29784 35.1603 0.243669 38.3555 0.235107C47.1949 0.235107 54.3835 8.27917 54.3835 18.2442C54.3835 18.3342 54.3835 20.6004 54.1134 24.2472C54.0806 24.5152 53.9512 24.762 53.7496 24.9416C53.548 25.1211 53.2878 25.2211 53.0179 25.2227Z" />
<path d="M40.7417 65.7432C40.3361 65.7399 39.9326 65.6844 39.5411 65.5781C38.4762 65.2439 37.5502 64.5698 36.9051 63.659C36.26 62.7482 35.9312 61.651 35.9693 60.5355V53.8272C35.9693 49.7151 33.0728 46.3234 29.5161 46.3234C25.9593 46.3234 23.0628 49.655 23.0628 53.8272V60.5355C23.0993 61.6486 22.7718 62.7432 22.1299 63.6532C21.488 64.5632 20.5668 65.239 19.506 65.5781C18.5375 65.8447 17.5077 65.7797 16.5803 65.3936C15.653 65.0074 14.8814 64.3222 14.3884 63.447C9.07574 54.8477 6.68953 43.577 5.639 35.653C5.61504 35.5004 5.62552 35.3444 5.66966 35.1964C5.71381 35.0484 5.7905 34.9121 5.89413 34.7976C5.99696 34.6797 6.12383 34.5853 6.2662 34.5206C6.40858 34.4559 6.56316 34.4224 6.71955 34.4224H52.3126C52.4689 34.4224 52.6235 34.4559 52.7659 34.5206C52.9083 34.5853 53.0351 34.6797 53.138 34.7976C53.2634 34.9144 53.3579 35.0606 53.4129 35.223C53.4679 35.3854 53.4817 35.559 53.4531 35.728C52.4026 43.667 50.0164 54.9227 44.7037 63.522C44.2937 64.205 43.7125 64.7692 43.0176 65.1587C42.3228 65.5483 41.5383 65.7497 40.7417 65.7432ZM29.5161 44.1923C34.2885 44.1923 38.1604 48.5145 38.1604 53.8272V60.5355C38.0976 61.1849 38.2582 61.8362 38.6157 62.3819C38.9731 62.9277 39.5061 63.3351 40.1264 63.5371C40.6345 63.6789 41.176 63.6415 41.6598 63.431C42.1436 63.2206 42.5401 62.8499 42.7827 62.3815C47.6302 54.5325 49.9413 44.3724 51.0519 36.6735H7.98018C9.09074 44.2973 11.4019 54.5325 16.2494 62.3815C16.492 62.8499 16.8885 63.2206 17.3723 63.431C17.8561 63.6415 18.3976 63.6789 18.9057 63.5371C19.526 63.3351 20.059 62.9277 20.4164 62.3819C20.7739 61.8362 20.9344 61.1849 20.8717 60.5355V53.8272C20.8717 48.5445 24.7436 44.2223 29.5161 44.2223V44.1923Z" />
<path d="M41.7018 30.8956C41.4939 30.8953 41.2903 30.8359 41.115 30.7243C40.9396 30.6127 40.7995 30.4535 40.7113 30.2653C39.7136 28.1385 38.1308 26.3398 36.1481 25.0799C34.1654 23.82 31.8648 23.1508 29.5156 23.1508C27.1664 23.1508 24.8659 23.82 22.8832 25.0799C20.9005 26.3398 19.3176 28.1385 18.32 30.2653C18.2158 30.4826 18.0439 30.6601 17.83 30.7711C17.6162 30.8821 17.372 30.9205 17.1344 30.8806C12.5571 30.0552 4.88818 28.0592 4.88818 23.857C4.88818 18.5744 17.2844 15.813 29.5156 15.813C41.7468 15.813 54.143 18.5744 54.143 23.857C54.143 28.0592 46.4742 30.0552 41.8969 30.8806L41.7018 30.8956ZM29.5156 20.9606C32.1329 20.968 34.7002 21.6779 36.9494 23.0164C39.1986 24.3548 41.0472 26.2726 42.3021 28.5694C48.9504 27.2788 51.9519 25.2227 51.9519 23.857C51.9519 21.4108 43.4126 18.0041 29.5156 18.0041C15.6186 18.0041 7.00426 21.4108 7.00426 23.857C7.00426 25.2377 10.0058 27.2788 16.6541 28.5694C17.9151 26.2614 19.7755 24.3364 22.0391 22.9972C24.3026 21.6581 26.8856 20.9545 29.5156 20.9606Z" />
<path d="M42.9472 36.6285H15.9336C15.647 36.6285 15.3722 36.5146 15.1695 36.312C14.9669 36.1094 14.853 35.8345 14.853 35.5479C14.853 33.6343 15.23 31.7393 15.9623 29.9713C16.6946 28.2033 17.768 26.5969 19.1212 25.2437C20.4743 23.8906 22.0808 22.8172 23.8488 22.0848C25.6168 21.3525 27.5117 20.9756 29.4254 20.9756C31.3391 20.9756 33.234 21.3525 35.002 22.0848C36.77 22.8172 38.3764 23.8906 39.7296 25.2437C41.0828 26.5969 42.1562 28.2033 42.8885 29.9713C43.6208 31.7393 43.9977 33.6343 43.9977 35.5479C43.9978 35.8294 43.8881 36.0998 43.6919 36.3016C43.4957 36.5034 43.2285 36.6207 42.9472 36.6285ZM17.1042 34.4524H41.7916C41.5074 31.3751 40.0841 28.515 37.8006 26.4327C35.5172 24.3504 32.5382 23.1961 29.4479 23.1961C26.3576 23.1961 23.3786 24.3504 21.0952 26.4327C18.8117 28.515 17.3884 31.3751 17.1042 34.4524Z" />
<path d="M53.7376 30.8955C53.5633 30.8933 53.3917 30.8516 53.2358 30.7736C53.0798 30.6957 52.9436 30.5834 52.8372 30.4453C52.6769 30.2109 52.6139 29.9234 52.6615 29.6434C52.7091 29.3634 52.8635 29.1129 53.0923 28.9446L56.7091 26.3483C56.9445 26.2085 57.2238 26.162 57.4918 26.2179C57.7598 26.2737 57.9972 26.4279 58.1572 26.65C58.3172 26.8722 58.3883 27.1462 58.3563 27.4181C58.3244 27.69 58.1919 27.9401 57.9848 28.1191L54.3679 30.7155C54.1804 30.8367 53.9609 30.8994 53.7376 30.8955Z" />
<path d="M57.3397 34.8575C57.1262 34.8581 56.9173 34.7954 56.7394 34.6774L55.3587 33.7619C55.1406 33.5916 54.9951 33.3451 54.9513 33.0719C54.9075 32.7987 54.9687 32.519 55.1226 32.2891C55.2766 32.0592 55.5118 31.896 55.7811 31.8324C56.0503 31.7687 56.3337 31.8093 56.5743 31.946L57.94 32.8615C58.1407 32.9872 58.2946 33.1753 58.3779 33.397C58.4612 33.6187 58.4694 33.8617 58.4012 34.0885C58.333 34.3153 58.1922 34.5134 58.0004 34.6523C57.8086 34.7913 57.5764 34.8634 57.3397 34.8575Z" />
<path d="M5.29367 30.8955C5.06721 30.8905 4.84753 30.8173 4.66335 30.6854L1.04652 28.0891C0.83942 27.9101 0.706867 27.66 0.674953 27.3881C0.643039 27.1162 0.714074 26.8422 0.874089 26.62C1.03411 26.3979 1.2715 26.2437 1.53951 26.1878C1.80752 26.132 2.08672 26.1785 2.32215 26.3182L5.93898 28.9145C6.16773 29.0828 6.3222 29.3334 6.3698 29.6134C6.41739 29.8933 6.35439 30.1809 6.19411 30.4153C6.0908 30.5589 5.9559 30.6769 5.79978 30.7602C5.64366 30.8435 5.47051 30.8898 5.29367 30.8955Z" />
<path d="M1.69177 34.8576C1.5112 34.8604 1.33281 34.818 1.17289 34.7341C1.01297 34.6502 0.876617 34.5275 0.776311 34.3774C0.620577 34.1375 0.564808 33.8463 0.62089 33.5659C0.676973 33.2855 0.84048 33.0381 1.07648 32.8766L2.45717 31.9611C2.69774 31.8245 2.9811 31.7839 3.25038 31.8475C3.51965 31.9111 3.75487 32.0743 3.90879 32.3042C4.06271 32.5342 4.12393 32.8138 4.08015 33.087C4.03637 33.3602 3.89084 33.6067 3.67278 33.7771L2.29209 34.6925C2.11252 34.8053 1.90374 34.8627 1.69177 34.8576Z" />
</svg>
