<svg width="28" height="39" viewBox="0 0 28 39" xmlns="http://www.w3.org/2000/svg">
<path d="M13.6984 24.5005C6.24201 24.5005 0.175781 30.5667 0.175781 38.0231C0.175781 38.3866 0.469952 38.6807 0.833391 38.6807H26.5635C26.9269 38.6807 27.2211 38.3866 27.2211 38.0231C27.2211 30.5667 21.1548 24.5005 13.6984 24.5005ZM1.50854 37.3655C1.85137 30.9389 7.18809 25.8157 13.6984 25.8157C20.2088 25.8157 25.5455 30.9389 25.8883 37.3655H1.50854Z" />
<path d="M13.4752 23.2981C17.7882 23.2981 21.2976 19.7878 21.2976 15.4726C21.2976 13.9482 20.8579 12.4778 20.0307 11.2086V1.50844C20.0307 1.145 19.7365 0.85083 19.373 0.85083H7.57816C7.21472 0.85083 6.92055 1.145 6.92055 1.50844V11.2042C6.09109 12.476 5.65137 13.9495 5.65137 15.4726C5.65093 19.7878 9.16081 23.2981 13.4752 23.2981ZM8.23533 2.16649H18.715V10.9114H8.23533V2.16649ZM7.83638 12.2262H19.1161C19.6839 13.2104 19.9824 14.3235 19.9824 15.4726C19.982 19.0627 17.0631 21.9829 13.4752 21.9829C9.88637 21.9829 6.96659 19.0622 6.96659 15.4726C6.96659 14.3252 7.26733 13.2117 7.83638 12.2262Z" />
<path d="M15.767 5.95385H14.1331V4.31728C14.1331 3.95384 13.8389 3.65967 13.4755 3.65967C13.112 3.65967 12.8179 3.95384 12.8179 4.31728V5.95385H11.1835C10.82 5.95385 10.5259 6.24802 10.5259 6.61146C10.5259 6.9749 10.82 7.26907 11.1835 7.26907H12.8179V8.90345C12.8179 9.26688 13.112 9.56105 13.4755 9.56105C13.8389 9.56105 14.1331 9.26688 14.1331 8.90345V7.26907H15.767C16.1305 7.26907 16.4246 6.9749 16.4246 6.61146C16.4246 6.24802 16.13 5.95385 15.767 5.95385Z" />
</svg>
