<svg width="21" height="22" viewBox="0 0 21 22" fill="none" xmlns="http://www.w3.org/2000/svg">
<path d="M10.2595 9.73772V12.699H14.3714C13.9887 14.5808 12.3867 15.6619 10.2595 15.6619C7.78178 15.6278 5.79112 13.6096 5.79112 11.1317C5.79112 8.65376 7.78178 6.63552 10.2595 6.60142C11.2893 6.60018 12.2875 6.95758 13.0826 7.61224L15.3136 5.38122C12.7544 3.13138 9.01696 2.842 6.14198 4.6711C3.26701 6.50021 1.94549 10.0082 2.89901 13.2796C3.85254 16.5509 6.85196 18.7995 10.2595 18.7974C14.0925 18.7974 17.5781 16.0095 17.5781 11.1313C17.5722 10.6616 17.5146 10.194 17.4065 9.73686L10.2595 9.73772Z" fill="#2E3A59"/>
</svg>
