<svg width="61" height="62" viewBox="0 0 61 62" xmlns="http://www.w3.org/2000/svg">
<path d="M11.6282 61.9365C10.9654 61.9297 10.3153 61.7535 9.73971 61.4246C9.16417 61.0958 8.68231 60.6252 8.33997 60.0575C5.17984 55.0896 4.76703 51.2888 4.29728 46.8903C4.16917 45.6803 4.02682 44.4419 3.82753 43.1038C2.0746 40.43 0.990716 37.3736 0.667394 34.1928C0.311523 30.4633 0.311523 28.0149 0.311523 27.9152C0.311523 20.0149 6.23322 13.595 13.5072 13.595C13.7828 13.595 14.0471 13.7044 14.242 13.8993C14.4369 14.0942 14.5464 14.3585 14.5464 14.6341C14.5464 14.9097 14.4369 15.174 14.242 15.3689C14.0471 15.5638 13.7828 15.6732 13.5072 15.6732C7.37201 15.6732 2.3898 21.1679 2.3898 27.9152C2.3898 27.9152 2.38981 30.3778 2.73144 33.9935C2.99477 36.8963 3.97287 39.6889 5.57841 42.1216C5.6653 42.2434 5.71924 42.3856 5.73499 42.5344C5.96275 43.9579 6.1051 45.3814 6.24745 46.634C6.70296 50.9045 7.07306 54.3493 9.97697 58.9187C10.1709 59.2687 10.4779 59.5424 10.8477 59.695C11.2176 59.8476 11.6283 59.87 12.0126 59.7585C12.4519 59.6091 12.8295 59.3188 13.0869 58.9327C13.3443 58.5466 13.467 58.0863 13.436 57.6233V52.3422C13.3597 51.3526 13.4887 50.3578 13.8149 49.4204C14.1412 48.483 14.6577 47.6231 15.332 46.8947C16.0064 46.1663 16.8239 45.5852 17.7335 45.1878C18.643 44.7903 19.6249 44.5852 20.6175 44.5852C21.6101 44.5852 22.592 44.7903 23.5015 45.1878C24.4111 45.5852 25.2287 46.1663 25.903 46.8947C26.5773 47.6231 27.0938 48.483 27.4201 49.4204C27.7464 50.3578 27.8754 51.3526 27.799 52.3422V57.6233C27.768 58.0863 27.8907 58.5466 28.1481 58.9327C28.4055 59.3188 28.7832 59.6091 29.2225 59.7585C29.6068 59.8673 30.0166 59.8437 30.3858 59.6913C30.755 59.539 31.0623 59.2668 31.258 58.9187C32.7144 56.6893 33.7426 54.2081 34.2901 51.602C34.345 51.3322 34.5047 51.0951 34.7343 50.943C34.9638 50.7908 35.2444 50.736 35.5143 50.7906C35.7852 50.8488 36.0224 51.0114 36.1742 51.2432C36.3261 51.475 36.3805 51.7574 36.3257 52.029C35.7292 54.8817 34.5991 57.596 32.9947 60.029C32.5617 60.7578 31.8991 61.3222 31.1108 61.6339C30.3226 61.9457 29.4531 61.9869 28.6388 61.7514C27.771 61.4686 27.0166 60.9151 26.4863 60.1722C25.956 59.4293 25.6777 58.536 25.6922 57.6233V52.3422C25.768 51.6258 25.6922 50.9015 25.4699 50.2162C25.2476 49.531 24.8837 48.9001 24.4018 48.3646C23.9199 47.8291 23.3308 47.4009 22.6727 47.1078C22.0147 46.8147 21.3023 46.6633 20.5819 46.6633C19.8615 46.6633 19.1492 46.8147 18.4911 47.1078C17.833 47.4009 17.2439 47.8291 16.7621 48.3646C16.2802 48.9001 15.9163 49.531 15.694 50.2162C15.4716 50.9015 15.3959 51.6258 15.4716 52.3422V57.6233C15.4861 58.536 15.2078 59.4293 14.6775 60.1722C14.1472 60.9151 13.3929 61.4686 12.525 61.7514C12.2338 61.8461 11.9331 61.9081 11.6282 61.9365Z" />
<path d="M59.0588 44.627C58.8795 44.6259 58.7033 44.5797 58.5466 44.4926C58.3899 44.4056 58.2576 44.2804 58.162 44.1288L33.8346 3.45983C33.6411 3.14897 33.3352 2.92464 32.9805 2.83349C32.8038 2.78435 32.6187 2.77289 32.4372 2.79987C32.2558 2.82684 32.082 2.89163 31.9271 2.99005C31.7696 3.08164 31.6326 3.20478 31.5249 3.35175C31.4171 3.49871 31.3408 3.66635 31.3008 3.84415C31.2526 4.02101 31.2416 4.20597 31.2685 4.3873C31.2955 4.56863 31.3598 4.74239 31.4574 4.89756L52.6388 40.2996C52.7626 40.5346 52.7917 40.8081 52.7201 41.0638C52.6486 41.3196 52.4818 41.5382 52.2541 41.6749C52.0263 41.8115 51.7549 41.8558 51.4956 41.7985C51.2362 41.7413 51.0086 41.587 50.8595 41.3672L29.6638 5.95092C29.1944 5.16362 29.0567 4.2222 29.2809 3.33341C29.5051 2.44463 30.0728 1.68114 30.8595 1.2107C31.2486 0.973532 31.6808 0.815928 32.1312 0.746963C32.5816 0.677999 33.0412 0.699068 33.4834 0.808954C33.9256 0.91884 34.3416 1.11534 34.7073 1.38711C35.073 1.65888 35.3812 2.00052 35.614 2.39222L59.9413 43.0612C60.0131 43.1775 60.0609 43.3071 60.0819 43.4422C60.1028 43.5773 60.0965 43.7152 60.0634 43.8479C60.0302 43.9805 59.9708 44.1052 59.8888 44.2146C59.8067 44.3239 59.7036 44.4158 59.5855 44.4846C59.4254 44.5775 59.2438 44.6266 59.0588 44.627Z" />
<path d="M35.8276 48.6696C35.6656 48.6708 35.5058 48.6326 35.3619 48.5582C35.2181 48.4838 35.0945 48.3754 35.002 48.2425C34.8918 48.0983 34.8219 47.9274 34.7994 47.7474C34.7768 47.5673 34.8026 47.3845 34.8739 47.2176C37.977 39.9151 30.0625 34.6055 29.7208 34.4062C29.5828 34.319 29.468 34.1996 29.3862 34.0583C29.3044 33.917 29.258 33.758 29.2511 33.5948C29.2438 33.4303 29.2747 33.2662 29.3414 33.1156C29.4081 32.965 29.5087 32.8318 29.6354 32.7265C31.7564 31.0326 31.7991 29.4525 31.5714 28.5557C23.9273 31.5593 16.9807 24.6412 16.6817 24.2853C16.5488 24.157 16.4531 23.9952 16.4046 23.8169C16.3561 23.6387 16.3567 23.4507 16.4063 23.2728C16.4559 23.0948 16.5526 22.9336 16.6863 22.8061C16.82 22.6786 16.9856 22.5897 17.1657 22.5486C21.849 21.3671 23.7137 20.1571 24.4539 19.4027C19.3152 18.4632 16.2974 11.3601 16.1693 11.0327C16.089 10.8452 16.0664 10.6381 16.1044 10.4378C16.1425 10.2374 16.2394 10.053 16.3828 9.90809C16.5189 9.76061 16.6969 9.65834 16.8929 9.61508C17.0888 9.57182 17.2933 9.58961 17.4789 9.66608C17.7493 9.75149 24.155 12.0006 31.2155 6.6483C31.4339 6.49508 31.7023 6.43047 31.9665 6.46745C32.2307 6.50444 32.471 6.64031 32.639 6.84761C32.7956 7.06484 32.8623 7.33415 32.8251 7.59936C32.788 7.86457 32.6499 8.10522 32.4397 8.27109C30.57 9.77597 28.4173 10.8903 26.1091 11.548C23.8008 12.2057 21.3841 12.3936 19.002 12.1003C20.2831 14.3067 22.7315 17.6091 25.8347 17.3814C26.0661 17.3676 26.2955 17.4315 26.4864 17.5631C26.6773 17.6946 26.8187 17.8862 26.8881 18.1074C26.962 18.4134 26.9736 18.7311 26.9222 19.0416C26.8709 19.3522 26.7576 19.6493 26.5892 19.9152C25.7066 21.4952 23.3436 22.8618 19.5429 24.0006C21.8774 25.7799 26.76 28.6127 31.5856 26.1785C31.8059 26.0621 32.0614 26.0311 32.3031 26.0915C32.5448 26.152 32.7557 26.2995 32.8952 26.5059C33.5578 27.5913 33.8168 28.8754 33.6267 30.1327C33.4367 31.39 32.8098 32.5402 31.8561 33.3813C34.0625 35.2034 38.8596 39.9721 37.3365 46.1927C40.3258 45.4525 46.5322 43.2034 48.7243 37.0254C48.8176 36.7674 49.0092 36.5568 49.2572 36.4394C49.5052 36.3221 49.7895 36.3076 50.0482 36.3991C50.3073 36.4954 50.5181 36.6896 50.6353 36.9399C50.7524 37.1903 50.7665 37.4766 50.6745 37.7372C47.2866 47.1749 36.34 48.5272 35.8703 48.5841L35.8276 48.6696Z" />
<path d="M8.41142 25.8228C8.27562 25.8228 8.14118 25.7958 8.01589 25.7434C7.89061 25.691 7.77697 25.6142 7.68161 25.5176C7.58625 25.4209 7.51107 25.3062 7.46041 25.1802C7.40975 25.0542 7.38463 24.9194 7.38651 24.7837V23.6164C7.36937 23.4707 7.38327 23.323 7.42731 23.1831C7.47134 23.0431 7.54452 22.9141 7.64201 22.8044C7.7395 22.6948 7.85909 22.6071 7.99293 22.547C8.12677 22.4869 8.27182 22.4558 8.41853 22.4558C8.56524 22.4558 8.71028 22.4869 8.84412 22.547C8.97796 22.6071 9.09757 22.6948 9.19506 22.8044C9.29255 22.9141 9.36571 23.0431 9.40975 23.1831C9.45379 23.323 9.4677 23.4707 9.45056 23.6164V24.7837C9.45248 24.9206 9.42691 25.0566 9.37536 25.1835C9.32382 25.3105 9.24735 25.4258 9.15047 25.5227C9.05359 25.6196 8.93828 25.696 8.81134 25.7476C8.6844 25.7991 8.54842 25.8247 8.41142 25.8228Z" />
<path d="M8.41142 31.7017C8.27562 31.7017 8.14118 31.6747 8.01589 31.6223C7.89061 31.5699 7.77697 31.4931 7.68161 31.3965C7.58625 31.2998 7.51107 31.1851 7.46041 31.0591C7.40975 30.9331 7.38463 30.7983 7.38651 30.6625V29.4953C7.36937 29.3496 7.38327 29.2019 7.42731 29.062C7.47134 28.922 7.54452 28.793 7.64201 28.6833C7.7395 28.5737 7.85909 28.4859 7.99293 28.4259C8.12677 28.3658 8.27182 28.3347 8.41853 28.3347C8.56524 28.3347 8.71028 28.3658 8.84412 28.4259C8.97796 28.4859 9.09757 28.5737 9.19506 28.6833C9.29255 28.793 9.36571 28.922 9.40975 29.062C9.45379 29.2019 9.4677 29.3496 9.45056 29.4953V30.6625C9.45248 30.7995 9.42691 30.9355 9.37536 31.0624C9.32382 31.1894 9.24735 31.3047 9.15047 31.4016C9.05359 31.4985 8.93828 31.5749 8.81134 31.6265C8.6844 31.678 8.54842 31.7036 8.41142 31.7017Z" />
<path d="M11.9411 28.1715H10.7738C10.6281 28.1886 10.4805 28.1747 10.3405 28.1307C10.2006 28.0867 10.0715 28.0135 9.9619 27.916C9.85227 27.8185 9.76453 27.6989 9.70444 27.5651C9.64436 27.4312 9.61328 27.2862 9.61328 27.1395C9.61328 26.9928 9.64436 26.8477 9.70444 26.7139C9.76453 26.5801 9.85227 26.4604 9.9619 26.3629C10.0715 26.2654 10.2006 26.1923 10.3405 26.1483C10.4805 26.1042 10.6281 26.0903 10.7738 26.1075H11.9411C12.0868 26.0903 12.2345 26.1042 12.3744 26.1483C12.5144 26.1923 12.6434 26.2654 12.753 26.3629C12.8627 26.4604 12.9504 26.5801 13.0105 26.7139C13.0706 26.8477 13.1017 26.9928 13.1017 27.1395C13.1017 27.2862 13.0706 27.4312 13.0105 27.5651C12.9504 27.6989 12.8627 27.8185 12.753 27.916C12.6434 28.0135 12.5144 28.0867 12.3744 28.1307C12.2345 28.1747 12.0868 28.1886 11.9411 28.1715Z" />
<path d="M6.06266 28.1715H4.89542C4.74971 28.1886 4.60204 28.1747 4.46209 28.1307C4.32215 28.0867 4.19311 28.0135 4.08348 27.916C3.97385 27.8185 3.88609 27.6989 3.826 27.5651C3.76592 27.4312 3.73486 27.2862 3.73486 27.1395C3.73486 26.9928 3.76592 26.8477 3.826 26.7139C3.88609 26.5801 3.97385 26.4604 4.08348 26.3629C4.19311 26.2654 4.32215 26.1923 4.46209 26.1483C4.60204 26.1042 4.74971 26.0903 4.89542 26.1075H6.06266C6.20837 26.0903 6.35605 26.1042 6.49599 26.1483C6.63593 26.1923 6.76497 26.2654 6.8746 26.3629C6.98424 26.4604 7.07199 26.5801 7.13208 26.7139C7.19217 26.8477 7.22322 26.9928 7.22322 27.1395C7.22322 27.2862 7.19217 27.4312 7.13208 27.5651C7.07199 27.6989 6.98424 27.8185 6.8746 27.916C6.76497 28.0135 6.63593 28.0867 6.49599 28.1307C6.35605 28.1747 6.20837 28.1886 6.06266 28.1715Z" />
</svg>
