<svg width="60" height="77" viewBox="0 0 60 77" xmlns="http://www.w3.org/2000/svg">
<path d="M36.8343 10.1231H36.5019C33.696 9.38158 31.0903 8.0249 28.8737 6.15153C28.6254 5.91952 28.4795 5.59839 28.468 5.25879C28.4565 4.91919 28.5804 4.58899 28.8125 4.34074C29.0445 4.09249 29.3656 3.94654 29.7052 3.93506C30.0448 3.92357 30.375 4.04749 30.6233 4.2795C32.5288 5.87375 34.7633 7.02685 37.1668 7.65621C37.459 7.74238 37.7107 7.93012 37.8766 8.1856C38.0425 8.44109 38.1117 8.74748 38.0716 9.04945C38.0314 9.35143 37.8847 9.62912 37.6578 9.83241C37.431 10.0357 37.1389 10.1512 36.8343 10.1581V10.1231Z" />
<path d="M39.8784 45.6748H19.5656C16.5503 45.6603 13.6402 44.5647 11.364 42.5871C9.08777 40.6094 7.59647 37.881 7.16096 34.8972L5.20142 21.1454C4.71342 17.9637 5.02609 14.7106 6.11119 11.6801C7.15062 8.54206 9.13001 5.79968 11.7809 3.82479C14.4318 1.8499 17.626 0.738071 20.9303 0.640137C24.0832 0.656321 27.1484 1.68012 29.6782 3.56198C32.2063 1.67681 35.2727 0.652634 38.4262 0.640137C41.7542 0.725322 44.9741 1.83918 47.6433 3.82858C50.3125 5.81797 52.3001 8.58526 53.3328 11.7501C54.4179 14.7806 54.7306 18.0337 54.2426 21.2154L52.283 34.9672C51.8323 37.9381 50.3344 40.6501 48.0597 42.6136C45.785 44.5771 42.8833 45.6628 39.8784 45.6748ZM20.9827 3.19453C18.1988 3.29686 15.5133 4.25095 13.2888 5.92795C11.0642 7.60496 9.40782 9.92414 8.54315 12.5724C7.61417 15.2086 7.35559 18.0345 7.79078 20.7955L9.73286 34.5473C10.0841 36.9218 11.2742 39.092 13.0876 40.6647C14.901 42.2374 17.2177 43.1085 19.6181 43.1203H39.8784C42.2787 43.1085 44.5955 42.2374 46.4089 40.6647C48.2223 39.092 49.4124 36.9218 49.7636 34.5473L51.7056 20.7955C52.1408 18.0345 51.8823 15.2086 50.9533 12.5724C50.0876 9.92142 48.4286 7.60029 46.2006 5.92304C43.9726 4.24579 41.2832 3.29334 38.4962 3.19453C35.5848 3.21237 32.7749 4.26687 30.5706 6.16886C30.3375 6.3563 30.0473 6.45847 29.7482 6.45847C29.4491 6.45847 29.159 6.3563 28.9259 6.16886C26.717 4.26297 23.9002 3.20822 20.9827 3.19453Z" />
<path d="M29.748 76.1877C29.4609 76.1877 29.1823 76.0911 28.9569 75.9133C28.7315 75.7355 28.5726 75.4871 28.5057 75.2079C28.4315 74.8788 28.4888 74.5337 28.6653 74.2461C28.8417 73.9586 29.1235 73.7513 29.4505 73.6683L30.5878 73.4058L19.5653 72.986C19.2559 72.9746 18.9611 72.8513 18.7358 72.6389C18.5105 72.4265 18.3701 72.1394 18.3406 71.8312C18.3185 71.5251 18.4045 71.2209 18.5835 70.9715C18.7625 70.7222 19.0232 70.5435 19.3204 70.4665L30.5878 67.7372L19.5828 67.2823C19.2746 67.2673 18.9818 67.1428 18.7572 66.9311C18.5327 66.7194 18.3911 66.4344 18.3581 66.1275C18.3288 65.82 18.4119 65.5123 18.592 65.2614C18.7722 65.0105 19.0371 64.8334 19.3379 64.7628L30.5703 62.1035L19.5653 61.6486C19.2669 61.6244 18.9864 61.4962 18.7729 61.2862C18.5594 61.0763 18.4264 60.798 18.3972 60.5C18.3681 60.2019 18.4445 59.9032 18.6133 59.6558C18.782 59.4084 19.0323 59.2282 19.3204 59.1466L30.5703 56.4873L19.5653 56.0324C19.2565 56.0207 18.9624 55.8975 18.7375 55.6855C18.5126 55.4736 18.3721 55.1873 18.3422 54.8797C18.3123 54.5721 18.395 54.2641 18.5749 54.0128C18.7547 53.7615 19.0196 53.5839 19.3204 53.5129L30.5528 50.8536L19.5478 50.3987C19.2302 50.4035 18.9225 50.2881 18.6864 50.0757C18.4502 49.8633 18.303 49.5695 18.2742 49.2532C18.2455 48.9368 18.3373 48.6213 18.5313 48.3698C18.7253 48.1183 19.0071 47.9493 19.3204 47.8968L39.5807 43.2428C39.7474 43.1944 39.9222 43.1805 40.0945 43.2019C40.2667 43.2233 40.4328 43.2795 40.5825 43.3672C40.7323 43.455 40.8626 43.5723 40.9655 43.7121C41.0684 43.8519 41.1418 44.0111 41.1811 44.1802C41.2204 44.3493 41.2248 44.5246 41.194 44.6954C41.1633 44.8662 41.0981 45.029 41.0024 45.1738C40.9066 45.3186 40.7824 45.4423 40.6372 45.5375C40.492 45.6326 40.329 45.6972 40.158 45.7273L28.9257 48.3866L39.9306 48.8416C40.2385 48.8487 40.5331 48.9683 40.7587 49.1778C40.9844 49.3874 41.1255 49.6723 41.1553 49.9788C41.1846 50.2863 41.1016 50.594 40.9214 50.8449C40.7413 51.0958 40.4763 51.2729 40.1756 51.3435L28.9431 54.0028L39.9481 54.4577C40.2557 54.4729 40.5475 54.5988 40.7697 54.8121C40.9919 55.0254 41.1296 55.3118 41.1572 55.6186C41.1849 55.9253 41.1008 56.2318 40.9204 56.4814C40.7401 56.7311 40.4755 56.9071 40.1756 56.9772L28.9431 59.6365L39.9481 60.0739C40.2552 60.0923 40.5462 60.218 40.77 60.4291C40.9939 60.6401 41.1365 60.9232 41.1728 61.2287C41.2022 61.5362 41.119 61.8438 40.9389 62.0948C40.7587 62.3457 40.4938 62.5228 40.1931 62.5934L28.9431 65.2527L39.9481 65.7076C40.2569 65.7193 40.5511 65.8425 40.776 66.0545C41.0009 66.2664 41.1413 66.5527 41.1712 66.8603C41.2011 67.1679 41.1185 67.4759 40.9386 67.7272C40.7587 67.9785 40.4939 68.1561 40.1931 68.2271L28.9606 70.869L39.9656 71.3238C40.272 71.3392 40.5625 71.4645 40.7842 71.6765C41.0059 71.8885 41.1438 72.1732 41.1728 72.4786C41.2067 72.7843 41.1276 73.0919 40.9503 73.3433C40.773 73.5947 40.5099 73.7725 40.2105 73.8432L30.0629 76.1527C29.9608 76.1827 29.8542 76.1945 29.748 76.1877Z" />
<path d="M48.364 68.5771C48.158 68.5794 47.9546 68.5312 47.7716 68.4366C47.5886 68.3421 47.4315 68.2041 47.3142 68.0347C47.1292 67.7593 47.0586 67.4227 47.1174 67.0961C47.1762 66.7696 47.3597 66.4787 47.6292 66.2851L57.042 59.8291C57.181 59.7338 57.3374 59.6667 57.5023 59.6318C57.6673 59.5969 57.8375 59.5948 58.0032 59.6257C58.1689 59.6566 58.3269 59.7198 58.4682 59.8117C58.6095 59.9037 58.7313 60.0225 58.8266 60.1615C58.922 60.3006 58.989 60.4569 59.0239 60.6219C59.0588 60.7868 59.0609 60.957 59.03 61.1227C58.9991 61.2884 58.9359 61.4464 58.844 61.5877C58.752 61.729 58.6332 61.8508 58.4942 61.9461L49.0813 68.3846C48.8675 68.5204 48.6171 68.5876 48.364 68.5771Z" />
<path d="M48.4692 54.3879C48.1979 54.3857 47.9344 54.2972 47.7167 54.1353C47.4991 53.9733 47.3388 53.7462 47.2588 53.487C47.1789 53.2277 47.1836 52.9497 47.2722 52.6933C47.3609 52.4369 47.5289 52.2155 47.7519 52.0609L57.1647 45.6049C57.3014 45.491 57.4605 45.407 57.6316 45.3581C57.8027 45.3093 57.9821 45.2967 58.1584 45.3213C58.3346 45.3458 58.5038 45.4069 58.655 45.5007C58.8063 45.5944 58.9363 45.7188 59.0367 45.8657C59.1371 46.0126 59.2056 46.1789 59.238 46.3539C59.2704 46.5288 59.2659 46.7087 59.2247 46.8818C59.1835 47.0549 59.1066 47.2175 58.9989 47.3592C58.8913 47.5008 58.7552 47.6184 58.5994 47.7044L49.2041 54.1604C48.9888 54.311 48.7319 54.3905 48.4692 54.3879Z" />
<path d="M11.15 68.5771C10.8931 68.5772 10.6425 68.4978 10.4327 68.3496L1.03734 61.8936C0.761344 61.7056 0.571299 61.4157 0.508964 61.0876C0.446629 60.7595 0.517102 60.4201 0.704918 60.144C0.895866 59.8717 1.1855 59.6846 1.51223 59.6226C1.83895 59.5605 2.177 59.6283 2.45451 59.8116L11.8673 66.2676C12.1361 66.4613 12.3203 66.7507 12.3822 67.0761C12.444 67.4016 12.3787 67.7384 12.1998 68.0172C12.0813 68.1866 11.9244 68.3256 11.742 68.4229C11.5595 68.5202 11.3567 68.573 11.15 68.5771Z" />
<path d="M11.0452 54.3879C10.7879 54.3904 10.5366 54.3107 10.3278 54.1604L0.914987 47.7044C0.642695 47.5135 0.455625 47.2238 0.393547 46.8971C0.331469 46.5704 0.399274 46.2323 0.58256 45.9548C0.770562 45.6788 1.06045 45.4888 1.38853 45.4264C1.71661 45.3641 2.05603 45.4346 2.33216 45.6224L11.745 52.0784C11.968 52.2329 12.136 52.4545 12.2246 52.7109C12.3133 52.9673 12.318 53.2452 12.2381 53.5045C12.1582 53.7637 11.9977 53.9908 11.7801 54.1528C11.5625 54.3148 11.2989 54.4033 11.0276 54.4054L11.0452 54.3879Z" />
</svg>
