<svg width="21" height="22" viewBox="0 0 21 22" xmlns="http://www.w3.org/2000/svg">
<path d="M10.611 18.9066C8.50006 18.9066 8.25122 18.8955 7.42746 18.8594C6.78507 18.8383 6.151 18.7077 5.55254 18.4733C4.5171 18.0703 3.69834 17.2512 3.29577 16.2157C3.07036 15.615 2.94878 14.9804 2.93624 14.339C2.88818 13.517 2.88818 13.2475 2.88818 11.1529C2.88818 9.03605 2.89934 8.78892 2.93624 7.96945C2.94905 7.32891 3.07063 6.6952 3.29577 6.09539C3.6979 5.05842 4.51799 4.23864 5.55511 3.83691C6.15461 3.61055 6.78848 3.48865 7.42917 3.47651C8.24864 3.43018 8.51808 3.43018 10.611 3.43018C12.739 3.43018 12.9836 3.44133 13.7945 3.47651C14.4368 3.48875 15.0724 3.61064 15.6737 3.83691C16.7105 4.2391 17.5304 5.05872 17.933 6.09539C18.1622 6.70394 18.2844 7.34755 18.2943 7.99777C18.3423 8.81981 18.3423 9.08839 18.3423 11.1821C18.3423 13.2759 18.3303 13.5504 18.2943 14.363C18.2815 15.0051 18.1596 15.6402 17.9339 16.2414C17.5303 17.2777 16.7103 18.0971 15.6737 18.4999C15.0732 18.7249 14.439 18.8464 13.7979 18.8594C12.9784 18.9066 12.7098 18.9066 10.611 18.9066ZM10.5818 4.78853C8.4829 4.78853 8.26495 4.79882 7.44548 4.83572C6.95635 4.8422 6.47196 4.93246 6.01333 5.10258C5.33609 5.36173 4.80019 5.89545 4.53828 6.57163C4.36685 7.03525 4.27657 7.52494 4.27142 8.01922C4.22594 8.8507 4.22594 9.06866 4.22594 11.1529C4.22594 13.2124 4.23366 13.4621 4.27142 14.2884C4.2791 14.7777 4.36932 15.2621 4.53828 15.7214C4.80058 16.3971 5.33638 16.9304 6.01333 17.1896C6.47165 17.3608 6.95624 17.4511 7.44548 17.4564C8.2761 17.5045 8.49492 17.5045 10.5818 17.5045C12.6867 17.5045 12.9046 17.4942 13.7172 17.4564C14.2067 17.4505 14.6914 17.3602 15.1502 17.1896C15.8234 16.9282 16.3558 16.3961 16.6176 15.7231C16.7887 15.2591 16.8789 14.7692 16.8844 14.2747H16.8939C16.9308 13.4543 16.9308 13.2355 16.9308 11.1392C16.9308 9.04291 16.9213 8.82239 16.8844 8.00291C16.8767 7.51419 16.7865 7.03028 16.6176 6.57163C16.3564 5.89766 15.8239 5.36455 15.1502 5.10258C14.6915 4.9316 14.2067 4.84132 13.7172 4.83572C12.8875 4.78853 12.6704 4.78853 10.5818 4.78853ZM10.611 15.1164C9.00633 15.1175 7.5591 14.1517 6.94424 12.6696C6.32937 11.1874 6.66797 9.48082 7.80212 8.34569C8.93628 7.21055 10.6426 6.87047 12.1253 7.48406C13.608 8.09764 14.575 9.54403 14.5753 11.1487C14.5729 13.3377 12.8 15.1122 10.611 15.1164ZM10.611 8.57268C9.18923 8.57268 8.0367 9.72522 8.0367 11.1469C8.0367 12.5687 9.18923 13.7212 10.611 13.7212C12.0327 13.7212 13.1852 12.5687 13.1852 11.1469C13.1819 9.72659 12.0313 8.57599 10.611 8.57268ZM14.7298 7.96087C14.2196 7.95897 13.8072 7.54434 13.8082 7.03414C13.8091 6.52394 14.223 6.11084 14.7332 6.11084C15.2434 6.11084 15.6573 6.52393 15.6582 7.03414C15.6584 7.28029 15.5606 7.5164 15.3864 7.69029C15.2122 7.86419 14.9759 7.96155 14.7298 7.96087Z" />
</svg>
