<svg width="22" height="22" viewBox="0 0 22 22" xmlns="http://www.w3.org/2000/svg">
<path d="M17.2392 18.8653H4.60473C3.83232 18.8643 3.20653 18.2382 3.20605 17.4657V4.8313C3.207 4.05922 3.83266 3.43356 4.60473 3.43262H17.2383C18.0107 3.43356 18.6368 4.05894 18.6387 4.8313V17.4657C18.6378 18.2383 18.0117 18.8643 17.2392 18.8653ZM6.35094 9.14918L6.018 10.3762H7.11463L6.40586 13.2646C6.35377 13.493 6.32502 13.7262 6.32005 13.9605C6.28016 14.3375 6.41509 14.712 6.68626 14.977C6.95743 15.242 7.33499 15.3683 7.711 15.3197C8.50882 15.2851 9.22548 14.8215 9.58421 14.1081L9.30361 15.2236H10.8576L11.744 11.6702C11.9671 10.7607 12.4064 10.2973 13.0474 10.2973C13.2752 10.2803 13.4989 10.3642 13.6593 10.5268C13.8197 10.6893 13.9007 10.9142 13.8806 11.1417C13.8829 11.3107 13.8583 11.4789 13.8077 11.6402L13.3546 13.2757C13.2893 13.5022 13.2564 13.7368 13.2568 13.9725C13.2323 14.349 13.3764 14.7169 13.6501 14.9765C13.9238 15.2361 14.2989 15.3606 14.6735 15.3162C15.5573 15.3162 16.1734 14.7156 16.5072 13.5306L15.9006 13.2963C15.6637 13.9733 15.4115 14.3028 15.1283 14.3028C14.9215 14.3028 14.8125 14.1595 14.8125 13.8875C14.8183 13.7449 14.8399 13.6033 14.8769 13.4654L15.3231 11.871C15.4243 11.543 15.4763 11.2018 15.4775 10.8585C15.5286 10.4023 15.385 9.94579 15.082 9.601C14.779 9.2562 14.3447 9.0551 13.8858 9.04707C12.9864 9.16991 12.2098 9.73861 11.8212 10.559L12.1301 9.17149H9.7378L9.40229 10.3728H10.5127L9.82619 13.1084C9.58648 13.7804 8.97118 14.2465 8.25932 14.2951C8.23288 14.2955 8.20646 14.2935 8.18038 14.2891C7.97186 14.2402 7.85087 14.1604 7.85087 13.9013C7.85573 13.6871 7.88744 13.4743 7.94526 13.268L8.98869 9.14918H6.35094ZM8.36315 6.43592C8.02899 6.43592 7.72022 6.61419 7.55314 6.90357C7.38607 7.19296 7.38607 7.5495 7.55314 7.83889C7.72022 8.12827 8.02899 8.30654 8.36315 8.30654V8.28509C8.61332 8.28712 8.85417 8.19029 9.03331 8.01565C9.20895 7.84223 9.30705 7.60518 9.30533 7.35836C9.29873 6.84395 8.87758 6.43162 8.36315 6.43592Z" />
</svg>
