<svg width="26" height="43" viewBox="0 0 26 43" xmlns="http://www.w3.org/2000/svg">
<path d="M16.7948 30.7144L23.6819 19.6405C23.7062 19.6016 23.7267 19.5612 23.7435 19.5191C24.9563 17.5371 25.5964 15.275 25.5964 12.9671C25.5964 6.0314 19.9534 0.388916 13.0166 0.388916C6.08143 0.388916 0.439484 6.0314 0.439484 12.9671C0.439484 15.2777 1.0807 17.5404 2.29458 19.5212C2.3097 19.5579 2.32751 19.5935 2.34856 19.6286L8.99118 30.7457C3.80587 31.5154 0.40332 33.6841 0.40332 36.3191C0.40332 39.6634 5.81911 42.1851 13.0004 42.1851C20.1817 42.1851 25.5969 39.6634 25.5969 36.3191C25.5964 33.628 22.1113 31.4506 16.7948 30.7144ZM3.74164 18.7823C2.64056 17.0308 2.05872 15.0203 2.05872 12.9676C2.05872 6.92467 6.97416 2.00869 13.0166 2.00869C19.0606 2.00869 23.9772 6.92467 23.9772 12.9676C23.9772 15.0192 23.3959 17.0298 22.2953 18.7828C22.2705 18.8222 22.2494 18.8633 22.2327 18.9059L14.876 30.7349C14.7319 30.8488 14.6288 31.0102 14.5883 31.198L12.8336 34.0193L3.81018 18.9183C3.79129 18.8714 3.76862 18.8255 3.74164 18.7823ZM12.9999 40.5653C6.53049 40.5653 2.02201 38.3275 2.02201 36.3186C2.02201 34.3469 5.94163 32.7482 9.89472 32.2586L12.1239 35.9899C12.2685 36.2322 12.5292 36.3817 12.8115 36.3839C12.8136 36.3839 12.8163 36.3839 12.8185 36.3839C13.0981 36.3839 13.3583 36.2392 13.5056 36.0018L15.8513 32.23C20.946 32.7897 23.9766 34.7112 23.9766 36.318C23.9772 38.3275 19.4687 40.5653 12.9999 40.5653Z" />
<path d="M17.645 12.9678C17.645 10.4067 15.5616 8.32275 13 8.32275C10.4389 8.32275 8.35547 10.4067 8.35547 12.9678C8.35547 15.5289 10.4389 17.6128 13 17.6128C15.5616 17.6128 17.645 15.5289 17.645 12.9678ZM9.97416 12.9678C9.97416 11.2994 11.3316 9.94199 12.9994 9.94199C14.6683 9.94199 16.0252 11.2994 16.0252 12.9678C16.0252 14.6361 14.6678 15.9936 12.9994 15.9936C11.3316 15.9936 9.97416 14.6361 9.97416 12.9678Z" />
</svg>
