<svg width="67" height="62" viewBox="0 0 67 62" xmlns="http://www.w3.org/2000/svg">
<path d="M39.937 14.8921C39.8431 14.9077 39.7473 14.9077 39.6534 14.8921C37.1134 14.236 34.7557 13.0112 32.7585 11.3103C32.6443 11.215 32.5508 11.0975 32.4837 10.9647C32.4167 10.832 32.3775 10.687 32.3686 10.5386C32.3598 10.3901 32.3813 10.2415 32.4321 10.1017C32.4828 9.96194 32.5616 9.83403 32.6637 9.72587C32.7657 9.61771 32.8888 9.53159 33.0254 9.4728C33.162 9.41401 33.3091 9.38381 33.4578 9.38403C33.6065 9.38426 33.7536 9.41491 33.89 9.47412C34.0264 9.53333 34.1492 9.61984 34.2509 9.72831C36.0013 11.1436 38.0381 12.162 40.2205 12.7131C40.4698 12.7866 40.6846 12.9468 40.8261 13.1647C40.9676 13.3827 41.0266 13.644 40.9923 13.9016C40.9581 14.1592 40.833 14.3961 40.6394 14.5695C40.4459 14.7429 40.1968 14.8414 39.937 14.8473V14.8921Z" />
<path d="M43.5932 61.3807C43.215 61.3825 42.8384 61.3323 42.4739 61.2314C41.4963 60.9219 40.6473 60.3003 40.0569 59.4619C39.4665 58.6236 39.1675 57.6147 39.2055 56.59V50.6204C39.3084 48.9963 38.7681 47.3971 37.7012 46.1683C36.6344 44.9395 35.1268 44.1799 33.5045 44.0538C30.3704 44.0538 27.8035 47.0386 27.8035 50.6204V56.59C27.8415 57.6147 27.5424 58.6236 26.952 59.4619C26.3617 60.3003 25.5126 60.9219 24.5351 61.2314C23.6456 61.4742 22.7007 61.4138 21.8494 61.0598C20.9981 60.7058 20.289 60.0783 19.834 59.2764C11.1183 45.1731 11.0586 23.6376 11.0586 22.7272C11.0586 13.7727 17.5655 6.48975 25.5648 6.48975C28.4287 6.49512 31.214 7.42703 33.5045 9.14624C35.7959 7.42895 38.5806 6.49726 41.4441 6.48975C49.4434 6.48975 55.9504 13.7727 55.9504 22.7272C55.9504 23.6376 55.9504 45.1134 47.175 59.2764C46.811 59.907 46.2896 60.4324 45.6618 60.8012C45.034 61.1701 44.3212 61.3697 43.5932 61.3807V61.3807ZM33.5045 41.8151C37.8474 41.8151 41.3844 45.7402 41.3844 50.5607V56.5303C41.3401 57.0811 41.4823 57.6308 41.7882 58.091C42.0941 58.5511 42.5458 58.8951 43.0708 59.0674C43.5041 59.1878 43.9658 59.1538 44.3769 58.9714C44.7879 58.789 45.1229 58.4695 45.3244 58.0675C53.7117 44.5015 53.7714 22.8764 53.7714 22.6675C53.7714 14.9069 48.2346 8.60897 41.4441 8.60897C38.787 8.62049 36.2209 9.57814 34.2059 11.3102C34.0071 11.4701 33.7596 11.5573 33.5045 11.5573C33.2493 11.5573 33.0019 11.4701 32.8031 11.3102C30.7881 9.57814 28.2219 8.62049 25.5648 8.60897C18.7744 8.60897 13.2375 14.9069 13.2375 22.6675C13.2375 22.8764 13.2375 44.5015 21.6846 58.0675C21.8883 58.4676 22.2235 58.7854 22.6339 58.9675C23.0442 59.1495 23.5048 59.1848 23.9381 59.0674C24.4659 58.8978 24.921 58.555 25.2297 58.0946C25.5385 57.6341 25.6829 57.083 25.6395 56.5303V50.5607C25.6395 45.6954 29.1615 41.7704 33.5045 41.7704V41.8151Z" />
<path d="M33.5044 34.0249C21.9531 34.0249 0.119141 32.5325 0.119141 26.9807C0.119141 26.0853 0.119141 23.3691 12.0584 21.4439C12.1989 21.4184 12.3431 21.4215 12.4823 21.4531C12.6215 21.4847 12.7529 21.5441 12.8686 21.6277C12.9843 21.7113 13.0819 21.8175 13.1555 21.9398C13.2291 22.0621 13.2773 22.198 13.2971 22.3393C13.3446 22.6243 13.2769 22.9165 13.109 23.1516C12.9411 23.3867 12.6867 23.5454 12.4017 23.593C4.0591 24.9361 2.35776 26.5778 2.35776 26.9807C2.35776 28.6373 13.3867 31.846 33.579 31.846C53.7714 31.846 64.8003 28.6373 64.8003 26.9807C64.8003 26.6076 63.0989 24.9361 54.7564 23.593C54.6137 23.5712 54.4768 23.5213 54.3535 23.4461C54.2303 23.371 54.1232 23.2721 54.0385 23.1553C53.9539 23.0384 53.8932 22.9059 53.8602 22.7654C53.8272 22.6249 53.8224 22.4792 53.8461 22.3369C53.8698 22.1945 53.9216 22.0583 53.9984 21.9361C54.0752 21.8139 54.1756 21.7082 54.2936 21.6251C54.4116 21.542 54.5449 21.4832 54.6859 21.4521C54.8268 21.421 54.9725 21.4182 55.1145 21.4439C66.9792 23.3691 66.9792 26.0853 66.9792 26.9807C66.9046 32.5474 45.0557 34.0249 33.5044 34.0249Z" />
<path d="M11.745 48.7846C11.4072 48.8034 11.069 48.7535 10.751 48.6381C10.433 48.5227 10.1416 48.3441 9.89437 48.1131C8.9243 47.143 8.17809 45.0536 12.8792 38.0244C12.9548 37.8987 13.055 37.7896 13.1737 37.7036C13.2925 37.6176 13.4274 37.5565 13.5703 37.5239C13.7133 37.4912 13.8613 37.4878 14.0056 37.5138C14.1499 37.5397 14.2875 37.5946 14.4101 37.675C14.5327 37.7554 14.6378 37.8597 14.7192 37.9817C14.8005 38.1037 14.8564 38.2408 14.8835 38.3849C14.9105 38.529 14.9082 38.6771 14.8767 38.8203C14.8451 38.9635 14.785 39.0989 14.6999 39.2183C11.1928 44.5014 11.2674 46.3669 11.4763 46.5759C12.6404 47.7549 22.7142 42.233 36.9966 27.9506C51.279 13.6682 56.786 3.5944 55.6219 2.43032C55.3383 2.14676 52.3833 2.31093 44.19 8.56414C43.9608 8.71079 43.685 8.76638 43.4169 8.71994C43.1488 8.67351 42.9078 8.52841 42.7412 8.31323C42.5747 8.09804 42.4947 7.82835 42.517 7.55716C42.5393 7.28598 42.6623 7.03296 42.8617 6.84787C54.3384 -1.92751 56.4576 0.191711 57.1591 0.878221C61.099 4.81819 46.7122 21.2944 38.5338 29.4728C31.2657 36.6961 17.5654 48.7846 11.745 48.7846Z" />
<path d="M55.2335 48.8444C53.6366 48.8444 50.9354 47.8743 46.0701 44.5313C39.7952 40.0346 33.9228 35.0011 28.5193 29.4878C23.0149 24.0813 17.9821 18.2147 13.4758 11.9519C8.13296 4.17647 8.86425 1.92292 9.89402 0.893159C10.5955 0.191725 12.7147 -1.9275 24.1913 6.86281C24.3187 6.94434 24.4278 7.05151 24.5115 7.1775C24.5952 7.30349 24.6518 7.44552 24.6776 7.59458C24.7034 7.74363 24.6979 7.89643 24.6614 8.04324C24.625 8.19004 24.5583 8.32766 24.4657 8.44729C24.3731 8.56692 24.2567 8.66595 24.1237 8.73809C23.9907 8.81023 23.8442 8.85388 23.6934 8.86628C23.5427 8.87868 23.391 8.85955 23.248 8.8101C23.1051 8.76065 22.974 8.68197 22.8631 8.57907C14.6847 2.32587 11.7297 2.14678 11.4312 2.44526C11.1327 2.74374 11.1626 4.77343 15.2667 10.7282C19.6978 16.8882 24.651 22.6553 30.0714 27.9655C44.3538 42.2479 54.4127 47.7698 55.5768 46.5908C55.7857 46.3819 55.8603 44.5164 52.3681 39.2332C52.2694 39.1156 52.1967 38.9785 52.1547 38.8308C52.1128 38.6832 52.1025 38.5283 52.1246 38.3764C52.1467 38.2245 52.2006 38.0789 52.2828 37.9493C52.3651 37.8197 52.4738 37.7089 52.6019 37.6242C52.7299 37.5396 52.8744 37.4829 53.0259 37.458C53.1774 37.4331 53.3324 37.4405 53.4808 37.4797C53.6293 37.5189 53.7677 37.589 53.8872 37.6854C54.0066 37.7819 54.1043 37.9025 54.1739 38.0393C58.8302 45.0686 58.084 47.1579 57.1587 48.128C56.9089 48.3798 56.6073 48.5742 56.2749 48.6979C55.9425 48.8216 55.5871 48.8716 55.2335 48.8444V48.8444Z" />
</svg>
