<svg width="19" height="19" viewBox="0 0 19 19" xmlns="http://www.w3.org/2000/svg">
<path d="M15.165 15.9219C8.76883 15.931 3.91455 11.0185 3.92139 4.67834C3.92139 4.26429 4.25705 3.92676 4.67109 3.92676H6.64981C7.02134 3.92676 7.33696 4.19974 7.39151 4.56725C7.52227 5.44804 7.77871 6.30552 8.15304 7.1135L8.23008 7.27978C8.3372 7.51099 8.26459 7.78571 8.05722 7.93379C7.44444 8.37141 7.21025 9.25227 7.68764 9.9396C8.28671 10.8021 9.04186 11.5571 9.90418 12.1559C10.5915 12.6332 11.4722 12.399 11.9098 11.7863C12.058 11.5788 12.3328 11.5062 12.5642 11.6134L12.7297 11.69C13.5377 12.0643 14.3953 12.3208 15.2762 12.4515C15.6437 12.5061 15.9165 12.8217 15.9165 13.1932V15.1722C15.9165 15.5863 15.5801 15.9219 15.166 15.9219L15.165 15.9219Z" />
</svg>
