<svg width="25" height="25" viewBox="0 0 25 25" xmlns="http://www.w3.org/2000/svg">
<path d="M12.8423 21.9275C11.5792 20.8502 10.4085 19.6691 9.34229 18.3965C7.74229 16.4855 5.84229 13.6395 5.84229 10.9275C5.84087 8.09509 7.54653 5.54093 10.1634 4.45694C12.7802 3.37294 15.7924 3.97278 17.7943 5.97654C19.1107 7.28715 19.8482 9.06993 19.8423 10.9275C19.8423 13.6395 17.9423 16.4855 16.3423 18.3965C15.2761 19.6691 14.1054 20.8502 12.8423 21.9275ZM12.8423 5.92754C10.0822 5.93085 7.84559 8.16749 7.84229 10.9275C7.84229 12.0935 8.36929 14.1125 10.8773 17.1135C11.4954 17.8516 12.1513 18.5572 12.8423 19.2275C13.5333 18.558 14.1895 17.8534 14.8083 17.1165C17.3153 14.1115 17.8423 12.0925 17.8423 10.9275C17.839 8.16749 15.6023 5.93085 12.8423 5.92754ZM12.8423 13.9275C11.1854 13.9275 9.84229 12.5844 9.84229 10.9275C9.84229 9.27069 11.1854 7.92754 12.8423 7.92754C14.4991 7.92754 15.8423 9.27069 15.8423 10.9275C15.8423 11.7232 15.5262 12.4863 14.9636 13.0489C14.401 13.6115 13.6379 13.9275 12.8423 13.9275Z" />
</svg>
