<svg width="77" height="80" viewBox="0 0 77 80" xmlns="http://www.w3.org/2000/svg">
<path d="M56.5644 28.1095C56.3363 28.1113 56.1119 28.0522 55.9142 27.9384C53.9025 26.7346 52.184 25.0979 50.8835 23.1473C50.8002 23.0058 50.7457 22.8492 50.7229 22.6866C50.7002 22.524 50.7098 22.3584 50.7511 22.1995C50.7925 22.0406 50.8647 21.8914 50.9637 21.7604C51.0628 21.6294 51.1867 21.5192 51.3284 21.4362C51.4676 21.3475 51.6234 21.2881 51.7863 21.2616C51.9492 21.2351 52.1158 21.2421 52.2759 21.2821C52.4361 21.3222 52.5863 21.3944 52.7176 21.4944C52.8489 21.5945 52.9584 21.7202 53.0395 21.864C54.1369 23.4627 55.567 24.8052 57.2317 25.7995C57.5121 25.9729 57.7126 26.25 57.7895 26.5705C57.8664 26.891 57.8135 27.229 57.6424 27.5107C57.5339 27.6988 57.3763 27.854 57.1864 27.9595C56.9965 28.065 56.7815 28.1169 56.5644 28.1095Z" />
<path d="M49.0181 68.1494C48.3048 68.1421 47.6069 67.941 46.999 67.5677C46.2041 67.0306 45.6066 66.2482 45.2977 65.34C44.9888 64.4317 44.9854 63.4474 45.2879 62.537L46.7424 57.4036C47.1704 56.0259 47.0728 54.5385 46.4686 53.2285C46.2132 52.6595 45.8379 52.1523 45.3683 51.7418C44.8987 51.3313 44.346 51.0271 43.7479 50.8501C43.1459 50.685 42.5156 50.6499 41.899 50.7473C41.2824 50.8446 40.6936 51.0722 40.1717 51.4147C38.957 52.2132 38.0797 53.4318 37.7077 54.837L36.2532 59.9703C36.0206 60.9033 35.4874 61.7338 34.7359 62.3337C33.9845 62.9336 33.0566 63.2696 32.0952 63.2899C31.2204 63.287 30.372 62.9902 29.6862 62.4471C29.0004 61.904 28.517 61.1462 28.3136 60.2954C24.3781 46.2301 29.5799 27.9725 29.8023 27.2025C32.0268 19.5024 39.4359 14.8653 46.3317 16.9358C48.7328 17.6329 50.8526 19.07 52.389 21.0425C54.7435 20.1939 57.3046 20.1041 59.7126 20.7858C61.4005 21.2893 62.961 22.1485 64.2892 23.3055C65.6174 24.4625 66.6824 25.8904 67.4126 27.4934C68.9844 30.9005 69.2582 34.7642 68.1826 38.3589C67.9602 39.1289 62.6557 57.3523 51.8415 67.157C51.0595 67.8326 50.0508 68.1872 49.0181 68.1494ZM42.5501 48.2321C43.1694 48.232 43.7856 48.3184 44.381 48.4887C45.3194 48.7683 46.1868 49.246 46.9248 49.8895C47.6628 50.533 48.2541 51.3274 48.6588 52.219C49.5337 54.0696 49.6922 56.1788 49.1037 58.1394L47.6321 63.2728C47.4833 63.6669 47.4698 64.0994 47.5937 64.5021C47.7176 64.9048 47.9719 65.2549 48.3166 65.4972C48.5927 65.6439 48.9092 65.6966 49.218 65.6472C49.5268 65.5978 49.8111 65.449 50.0277 65.2234C60.2944 55.8807 65.5988 37.8456 65.6502 37.5889C66.5567 34.5789 66.3315 31.3413 65.0171 28.4858C64.441 27.2003 63.5938 26.0546 62.5335 25.1273C61.4732 24.1999 60.2249 23.5127 58.8742 23.1129C56.6994 22.5005 54.3783 22.6763 52.3206 23.6091C52.052 23.724 51.7519 23.7425 51.4712 23.6614C51.1906 23.5803 50.9466 23.4047 50.7806 23.1642C49.5715 21.2738 47.7363 19.8686 45.5959 19.1944C40.0177 17.586 33.9946 21.4702 32.1466 27.8527C32.1466 28.0238 27.0132 46.1958 30.6579 59.5767C30.7201 59.9019 30.8913 60.1961 31.1433 60.4108C31.3953 60.6255 31.713 60.7477 32.0439 60.7574C32.4551 60.7217 32.8437 60.5541 33.152 60.2798C33.4603 60.0054 33.6718 59.6388 33.755 59.2345L35.2094 54.1012C35.7594 52.127 37.0134 50.4227 38.7344 49.3101C39.894 48.5889 41.2359 48.2148 42.6015 48.2321H42.5501Z" />
<path d="M41.079 79.2718C37.179 79.3373 33.342 78.2823 30.0238 76.2319C26.7056 74.1815 24.0455 71.222 22.3594 67.7046C21.5906 65.8957 20.313 64.3489 18.6818 63.2524C17.0506 62.1558 15.136 61.5565 13.1707 61.5275H6.68559C6.51044 61.5481 6.33292 61.5314 6.1647 61.4785C5.99648 61.4255 5.84137 61.3376 5.70959 61.2204C5.5778 61.1032 5.47234 60.9594 5.40011 60.7985C5.32788 60.6377 5.29053 60.4633 5.29053 60.287C5.29053 60.1106 5.32788 59.9362 5.40011 59.7754C5.47234 59.6145 5.5778 59.4707 5.70959 59.3535C5.84137 59.2363 5.99648 59.1484 6.1647 59.0954C6.33292 59.0425 6.51044 59.0258 6.68559 59.0464H13.1707C15.6158 59.0701 18.0013 59.804 20.0367 61.159C22.0722 62.5139 23.6698 64.4314 24.6352 66.678C26.1779 69.7134 28.5308 72.2626 31.4331 74.0431C34.3354 75.8237 37.674 76.7662 41.079 76.7662C44.484 76.7662 47.8225 75.8237 50.7249 74.0431C53.6272 72.2626 55.98 69.7134 57.5228 66.678C58.4864 64.4301 60.0836 62.5114 62.1194 61.1562C64.1553 59.801 66.5417 59.0679 68.9873 59.0464H75.4724C75.6476 59.0258 75.8251 59.0425 75.9933 59.0954C76.1615 59.1484 76.3166 59.2363 76.4484 59.3535C76.5802 59.4707 76.6857 59.6145 76.7579 59.7754C76.8301 59.9362 76.8675 60.1106 76.8675 60.287C76.8675 60.4633 76.8301 60.6377 76.7579 60.7985C76.6857 60.9594 76.5802 61.1032 76.4484 61.2204C76.3166 61.3376 76.1615 61.4255 75.9933 61.4785C75.8251 61.5314 75.6476 61.5481 75.4724 61.5275H68.9873C67.0226 61.5681 65.1108 62.1718 63.4789 63.2667C61.8471 64.3617 60.5638 65.9019 59.7815 67.7046C58.1 71.2219 55.4433 74.1821 52.1277 76.2327C48.812 78.2834 44.977 79.3383 41.079 79.2718Z" />
<path d="M11.5107 36.2543C10.2302 36.2526 8.98947 35.809 7.99811 34.9985C7.00675 34.1879 6.32548 33.0601 6.06937 31.8054L0.0975988 2.22024C0.0577388 2.05562 0.0527385 1.88448 0.0829252 1.71782C0.113112 1.55115 0.177806 1.39264 0.272872 1.25246C0.367938 1.11227 0.491286 0.993519 0.634959 0.903815C0.778632 0.814111 0.939463 0.755441 1.10715 0.731571C1.26797 0.696713 1.43415 0.694427 1.59587 0.724848C1.75759 0.75527 1.9116 0.817782 2.04876 0.908694C2.18593 0.999607 2.30349 1.11708 2.39451 1.25417C2.48553 1.39127 2.54816 1.54521 2.57871 1.70691L8.55051 31.275C8.71156 32.0679 9.17984 32.765 9.85311 33.2138C10.5264 33.6627 11.3499 33.8269 12.1438 33.6705C12.9414 33.5035 13.6417 33.0304 14.0945 32.353C14.5381 31.6767 14.6979 30.8531 14.5394 30.0601L10.7749 11.6656C10.7335 11.3505 10.8136 11.0315 10.9991 10.7734C11.1846 10.5154 11.4615 10.3378 11.7733 10.2767C12.0852 10.2156 12.4086 10.2757 12.6777 10.4448C12.9469 10.6138 13.1414 10.879 13.2218 11.1865L16.9521 29.6152C17.0964 30.3282 17.0982 31.0627 16.9572 31.7763C16.8162 32.49 16.5353 33.1687 16.1307 33.7732C15.3145 34.999 14.048 35.8536 12.6058 36.1516C12.2448 36.2197 11.8782 36.254 11.5107 36.2543Z" />
<path d="M25.1657 59.7138C25.0126 59.7382 24.8567 59.7382 24.7037 59.7138L11.1517 54.2212C10.9925 54.1566 10.8483 54.0599 10.7282 53.937C10.6081 53.8142 10.5146 53.6679 10.4535 53.5074C10.3925 53.3468 10.3653 53.1753 10.3735 53.0037C10.3818 52.8321 10.4253 52.6641 10.5014 52.51L13.3932 46.3671L11.1346 35.2278C11.069 34.9033 11.1348 34.5661 11.3177 34.2902C11.5006 34.0143 11.7855 33.8222 12.1099 33.7562C12.2707 33.7214 12.4369 33.7191 12.5986 33.7495C12.7603 33.7799 12.9143 33.8424 13.0515 33.9334C13.1887 34.0243 13.3062 34.1417 13.3972 34.2788C13.4882 34.4159 13.5509 34.5699 13.5814 34.7316L15.9257 46.2645C15.9792 46.531 15.9431 46.8077 15.823 47.0516L13.3248 52.3732L25.6277 57.3696C25.7914 57.429 25.9408 57.522 26.0665 57.6426C26.1921 57.7632 26.2911 57.9088 26.3572 58.0699C26.4233 58.231 26.4549 58.4042 26.4501 58.5783C26.4453 58.7523 26.4041 58.9235 26.3293 59.0807C26.2127 59.2834 26.0422 59.4498 25.8369 59.5616C25.6315 59.6733 25.3992 59.726 25.1657 59.7138Z" />
<path d="M39.6749 34.184C39.4239 34.187 39.1779 34.1132 38.97 33.9725C38.762 33.8318 38.602 33.631 38.5114 33.3969L37.1254 29.8206C37.022 29.5389 37.022 29.2297 37.1254 28.948L38.3574 25.5257L35.7907 19.9646C35.7042 19.8143 35.6498 19.6476 35.6312 19.4751C35.6126 19.3027 35.6301 19.1282 35.6827 18.9629C35.7352 18.7976 35.8216 18.645 35.9363 18.5149C36.0511 18.3848 36.1917 18.28 36.3491 18.2073C36.5066 18.1345 36.6775 18.0953 36.8509 18.0922C37.0244 18.0892 37.1966 18.1222 37.3565 18.1894C37.5165 18.2565 37.6607 18.3562 37.78 18.4821C37.8993 18.6081 37.991 18.7575 38.0494 18.9208L40.8385 24.9268C40.9577 25.2292 40.9577 25.5656 40.8385 25.8679L39.5894 29.3928L40.8214 32.4557C40.9356 32.7649 40.9264 33.1062 40.7958 33.4089C40.6652 33.7115 40.4232 33.9523 40.1199 34.0813C39.9778 34.1385 39.8277 34.1731 39.6749 34.184Z" />
<path d="M42.722 27.6816C42.5971 27.6983 42.4705 27.6983 42.3456 27.6816L39.2998 26.7233C38.9838 26.6211 38.7206 26.3988 38.567 26.1043C38.4133 25.8099 38.3815 25.4668 38.4784 25.1491C38.5269 24.9916 38.6065 24.8453 38.7125 24.7191C38.8185 24.5929 38.9487 24.4892 39.0955 24.4142C39.2423 24.3392 39.4027 24.2944 39.5671 24.2825C39.7315 24.2706 39.8966 24.2918 40.0527 24.3449L43.0985 25.3031C43.3754 25.3985 43.6101 25.5882 43.7613 25.839C43.9126 26.0899 43.9709 26.3859 43.9261 26.6754C43.8812 26.9649 43.7361 27.2294 43.516 27.4227C43.2959 27.616 43.0149 27.7258 42.722 27.7329V27.6816Z" />
</svg>
