<svg width="80" height="47" viewBox="0 0 80 47" xmlns="http://www.w3.org/2000/svg">
<path d="M33.3053 21.9504C29.1473 21.9504 25.7422 18.0149 25.7422 13.1724V3.60728C25.7422 2.80857 26.0594 2.04256 26.6242 1.47779C27.189 0.91301 27.955 0.595703 28.7537 0.595703H37.874C38.6727 0.595703 39.4387 0.91301 40.0035 1.47779C40.5683 2.04256 40.8855 2.80857 40.8855 3.60728V13.1724C40.8855 18.0149 37.4804 21.9504 33.3053 21.9504ZM28.7537 3.12817C28.6857 3.12578 28.6179 3.13742 28.5545 3.16237C28.4911 3.18733 28.4336 3.22503 28.3854 3.27318C28.3373 3.32134 28.2996 3.37891 28.2746 3.44227C28.2497 3.50563 28.238 3.57343 28.2404 3.64148V13.2066C28.2404 16.6288 30.5162 19.4864 33.3737 19.4864C36.2313 19.4864 38.5071 16.6802 38.5071 13.2066V3.60728C38.5095 3.53923 38.4978 3.47138 38.4729 3.40801C38.4479 3.34465 38.4102 3.28713 38.362 3.23898C38.3139 3.19083 38.2564 3.15307 38.193 3.12812C38.1296 3.10317 38.0618 3.09153 37.9937 3.09392L28.7537 3.12817Z" />
<path d="M45.9499 21.9504C41.7747 21.9504 38.3867 18.0149 38.3867 13.1724V3.60728C38.3867 2.81152 38.7017 2.04808 39.2627 1.48379C39.8238 0.919505 40.5854 0.600224 41.3812 0.595703H50.5185C51.3143 0.600224 52.0759 0.919505 52.637 1.48379C53.1981 2.04808 53.513 2.81152 53.513 3.60728V13.1724C53.513 18.0149 50.125 21.9504 45.9499 21.9504ZM41.3812 3.12817C41.3145 3.12813 41.2486 3.14149 41.1872 3.16749C41.1259 3.19349 41.0704 3.2316 41.0241 3.2795C40.9778 3.32741 40.9416 3.38415 40.9177 3.44634C40.8938 3.50854 40.8826 3.57489 40.8849 3.64148V13.2066C40.8849 16.6288 43.1607 19.4864 46.0183 19.4864C48.8758 19.4864 51.1516 16.6802 51.1516 13.2066V3.60728C51.1539 3.54069 51.1428 3.47428 51.1189 3.41209C51.095 3.34989 51.0588 3.29315 51.0125 3.24525C50.9662 3.19734 50.9107 3.15929 50.8494 3.13329C50.788 3.10729 50.7221 3.09388 50.6554 3.09392L41.3812 3.12817Z" />
<path d="M57.928 22.4125C54.1293 22.4125 51.0835 18.8192 51.0835 14.4216V5.86602C51.088 5.12019 51.3875 4.40648 51.9164 3.8807C52.4454 3.35491 53.161 3.0598 53.9068 3.05981H62.1031C62.8489 3.0598 63.5644 3.35491 64.0934 3.8807C64.6224 4.40648 64.9219 5.12019 64.9264 5.86602V14.4216C64.858 18.8192 61.7437 22.4125 57.928 22.4125ZM53.8384 5.48957C53.7535 5.49372 53.6732 5.52932 53.6131 5.58941C53.553 5.64951 53.5174 5.7298 53.5132 5.81468V14.3703C53.5132 17.3989 55.4982 19.863 57.928 19.863C60.3577 19.863 62.3597 17.3989 62.3597 14.3703V5.81468C62.3556 5.7298 62.32 5.64951 62.2599 5.58941C62.1998 5.52932 62.1195 5.49372 62.0346 5.48957H53.8384Z" />
<path d="M21.3274 22.4125C17.5116 22.4125 14.4829 18.8192 14.4829 14.4216V5.86602C14.4874 5.12019 14.7869 4.40648 15.3159 3.8807C15.8448 3.35491 16.5604 3.0598 17.3062 3.05981H25.4854C26.2312 3.0598 26.9468 3.35491 27.4757 3.8807C28.0047 4.40648 28.3042 5.12019 28.3087 5.86602V14.4216C28.2403 18.8192 25.1432 22.4125 21.3274 22.4125ZM17.2378 5.48957C17.1516 5.48957 17.0689 5.52385 17.0079 5.58482C16.9469 5.64579 16.9127 5.72846 16.9127 5.81468V14.3703C16.9127 17.3989 18.8976 19.863 21.3274 19.863C23.7572 19.863 25.7421 17.3989 25.7421 14.3703V5.81468C25.7421 5.72846 25.7078 5.64579 25.6468 5.58482C25.5859 5.52385 25.5032 5.48957 25.417 5.48957H17.2378Z" />
<path d="M37.874 46.9499H28.7537C27.955 46.9499 27.189 46.6326 26.6242 46.0679C26.0594 45.5031 25.7422 44.7371 25.7422 43.9384V34.3732C25.7422 29.5308 29.1644 25.5952 33.3053 25.5952C37.4462 25.5952 40.8855 29.5308 40.8855 34.3732V43.9384C40.8855 44.3338 40.8076 44.7255 40.6563 45.0908C40.5049 45.4562 40.2831 45.7882 40.0035 46.0679C39.7238 46.3475 39.3918 46.5694 39.0265 46.7207C38.6611 46.872 38.2695 46.9499 37.874 46.9499ZM33.3053 28.1277C30.5162 28.1277 28.1719 30.9339 28.1719 34.4075V43.9726C28.1696 44.0407 28.1812 44.1085 28.2061 44.1718C28.2311 44.2352 28.2689 44.2928 28.317 44.3409C28.3652 44.3891 28.4227 44.4268 28.486 44.4517C28.5494 44.4767 28.6173 44.4883 28.6853 44.4859H37.8055C37.8736 44.4883 37.9414 44.4767 38.0047 44.4517C38.0681 44.4268 38.1257 44.3891 38.1738 44.3409C38.222 44.2928 38.2597 44.2352 38.2846 44.1718C38.3096 44.1085 38.3212 44.0407 38.3188 43.9726V34.4075C38.3873 30.8997 36.1115 28.0935 33.3053 28.0935V28.1277Z" />
<path d="M50.5185 46.9499H41.3812C40.5854 46.9454 39.8238 46.6261 39.2627 46.0619C38.7017 45.4976 38.3867 44.7341 38.3867 43.9384V34.3732C38.3867 29.5308 41.809 25.5952 45.9499 25.5952C50.0908 25.5952 53.513 29.5308 53.513 34.3732V43.9384C53.513 44.7341 53.1981 45.4976 52.637 46.0619C52.0759 46.6261 51.3143 46.9454 50.5185 46.9499ZM45.9499 28.1277C43.1608 28.1277 40.8165 30.9339 40.8165 34.4075V43.9726C40.8142 44.0392 40.8254 44.1056 40.8493 44.1678C40.8732 44.23 40.9093 44.2867 40.9556 44.3346C41.0019 44.3825 41.0575 44.4206 41.1188 44.4466C41.1802 44.4726 41.2461 44.486 41.3127 44.4859H50.4501C50.5167 44.486 50.5826 44.4726 50.644 44.4466C50.7053 44.4206 50.7609 44.3825 50.8072 44.3346C50.8535 44.2867 50.8896 44.23 50.9136 44.1678C50.9375 44.1056 50.9486 44.0392 50.9463 43.9726V34.4075C51.0147 30.8997 48.739 28.0935 45.9499 28.0935V28.1277Z" />
<path d="M62.0342 44.5373H53.838C53.0892 44.5373 52.3711 44.2398 51.8416 43.7104C51.3121 43.1809 51.0146 42.4628 51.0146 41.714V33.1584C51.0146 28.7608 54.1289 25.1675 57.8591 25.1675C61.5893 25.1675 64.7891 28.7608 64.7891 33.1584V41.714C64.7893 42.4511 64.5013 43.159 63.9865 43.6866C63.4718 44.2141 62.7711 44.5194 62.0342 44.5373ZM57.9276 27.6315C55.4978 27.6315 53.5129 30.0955 53.5129 33.1242V41.6798C53.5128 41.7677 53.5464 41.8522 53.607 41.9159C53.6675 41.9796 53.7502 42.0176 53.838 42.022H62.0342C62.122 42.0176 62.2047 41.9796 62.2652 41.9159C62.3258 41.8522 62.3595 41.7677 62.3593 41.6798V33.1242C62.3593 30.0955 60.3745 27.6315 57.9276 27.6315Z" />
<path d="M25.4166 44.5373H17.2374C16.4886 44.5373 15.7705 44.2398 15.241 43.7104C14.7115 43.1809 14.4141 42.4628 14.4141 41.714V33.1584C14.4141 28.7608 17.5112 25.1675 21.2585 25.1675C25.0059 25.1675 28.103 28.7608 28.103 33.1584V41.714C28.1038 42.4397 27.8252 43.1378 27.325 43.6635C26.8248 44.1892 26.1414 44.5021 25.4166 44.5373ZM21.327 27.6315C18.8972 27.6315 16.9123 30.0955 16.9123 33.1242V41.6798C16.91 41.7239 16.9167 41.768 16.932 41.8094C16.9473 41.8509 16.9708 41.8887 17.0013 41.9208C17.0317 41.9528 17.0683 41.9783 17.1089 41.9957C17.1495 42.0131 17.1933 42.022 17.2374 42.022H25.4166C25.4607 42.022 25.5044 42.0131 25.545 41.9957C25.5856 41.9783 25.6223 41.9528 25.6527 41.9208C25.6831 41.8887 25.7067 41.8509 25.722 41.8094C25.7373 41.768 25.744 41.7239 25.7417 41.6798V33.1242C25.7417 30.0955 23.7568 27.6315 21.327 27.6315Z" />
<path d="M63.6087 42.3811C63.3054 42.3733 63.0154 42.2554 62.7927 42.0495C62.57 41.8435 62.4298 41.5635 62.3983 41.2618C62.3669 40.9601 62.4464 40.6572 62.6219 40.4098C62.7974 40.1623 63.0569 39.9872 63.3521 39.9171C67.0896 39.155 70.449 37.1248 72.8617 34.1704C75.2745 31.216 76.5924 27.5187 76.5924 23.7043C76.5924 19.8899 75.2745 16.1925 72.8617 13.2381C70.449 10.2837 67.0896 8.25364 63.3521 7.49147C63.0372 7.41609 62.764 7.22142 62.5899 6.9485C62.4158 6.67557 62.3544 6.34572 62.4187 6.02845C62.4831 5.71118 62.6681 5.43126 62.9348 5.24772C63.2014 5.06419 63.529 4.99137 63.8483 5.04459C68.1491 5.92274 72.0145 8.25956 74.7906 11.6598C77.5667 15.06 79.083 19.3148 79.083 23.7043C79.083 28.0938 77.5667 32.3486 74.7906 35.7488C72.0145 39.149 68.1491 41.4858 63.8483 42.364L63.6087 42.3811Z" />
<path d="M63.6085 35.9302C63.4078 35.9282 63.2104 35.8792 63.0321 35.787C62.8538 35.6949 62.6996 35.5623 62.5819 35.3997C62.3948 35.1338 62.3204 34.8048 62.3749 34.4843C62.4293 34.1638 62.6083 33.8777 62.8728 33.6886C64.9832 32.1705 66.5634 30.0277 67.3901 27.5628C66.4017 26.5282 65.8501 25.1523 65.8501 23.7214C65.8501 22.2904 66.4017 20.9146 67.3901 19.8799C66.5634 17.4151 64.9832 15.2723 62.8728 13.7541C62.6083 13.565 62.4293 13.279 62.3749 12.9585C62.3204 12.638 62.3948 12.3089 62.5819 12.043C62.7738 11.7822 63.0594 11.6061 63.3787 11.5519C63.6979 11.4976 64.0257 11.5694 64.293 11.7521C67.1047 13.7667 69.121 16.7033 69.991 20.051C70.0576 20.3139 70.0369 20.5913 69.9319 20.8414C69.827 21.0914 69.6435 21.3005 69.4092 21.437C69.0662 21.7145 68.7895 22.0652 68.5995 22.4634C68.4094 22.8616 68.3108 23.2973 68.3108 23.7385C68.3108 24.1797 68.4094 24.6154 68.5995 25.0136C68.7895 25.4118 69.0662 25.7624 69.4092 26.0399C69.6435 26.1765 69.827 26.3856 69.9319 26.6356C70.0369 26.8857 70.0576 27.1631 69.991 27.4259C69.1407 30.7874 67.1359 33.7431 64.3272 35.7762C64.1078 35.8965 63.858 35.95 63.6085 35.9302Z" />
<path d="M70.0254 28.6751C69.0048 28.8506 67.955 28.708 67.0183 28.2666C66.0815 27.8252 65.3032 27.1064 64.7888 26.2077C64.2744 25.3089 64.049 24.2737 64.1429 23.2425C64.2368 22.2112 64.6456 21.2338 65.3139 20.4427C65.9822 19.6517 66.8776 19.0854 67.8787 18.8205C68.8798 18.5556 69.9381 18.6051 70.9101 18.9621C71.8822 19.3191 72.7209 19.9664 73.3126 20.8163C73.9042 21.6661 74.2202 22.6774 74.2176 23.7129C74.3081 24.9243 73.9195 26.1228 73.1356 27.0508C72.3516 27.9787 71.2348 28.562 70.0254 28.6751ZM70.0254 21.2318C69.1185 21.2318 68.3143 22.3611 68.3143 23.7129C68.3143 25.0647 69.0843 26.1769 70.0254 26.1769C70.9665 26.1769 71.7365 25.0476 71.7365 23.7129C71.7365 22.3782 70.9494 21.2318 70.0254 21.2318Z" />
<path d="M15.6632 42.3813H15.4066C11.1058 41.5031 7.24037 39.1663 4.46428 35.7661C1.6882 32.3659 0.171875 28.1111 0.171875 23.7216C0.171875 19.3321 1.6882 15.0773 4.46428 11.6771C7.24037 8.2769 11.1058 5.94003 15.4066 5.06188C15.731 4.99629 16.0683 5.06219 16.3442 5.24506C16.6201 5.42794 16.8121 5.71285 16.8781 6.03723C16.913 6.19805 16.9153 6.36422 16.8848 6.52595C16.8544 6.68767 16.7919 6.84168 16.701 6.97884C16.6101 7.11601 16.4926 7.23356 16.3555 7.32458C16.2184 7.4156 16.0645 7.47826 15.9028 7.50881C12.1653 8.27098 8.80585 10.3011 6.3931 13.2555C3.98035 16.2099 2.66246 19.9071 2.66246 23.7216C2.66246 27.536 3.98035 31.2333 6.3931 34.1877C8.80585 37.1422 12.1653 39.1722 15.9028 39.9344C16.197 40.0038 16.4561 40.1774 16.632 40.4232C16.8079 40.669 16.8887 40.9702 16.8594 41.2711C16.8302 41.5719 16.6928 41.8519 16.4729 42.0592C16.2529 42.2665 15.9653 42.387 15.6632 42.3984V42.3813Z" />
<path d="M15.663 35.9303C15.3991 35.9269 15.1425 35.8434 14.9272 35.6907C12.1208 33.6711 10.1059 30.7365 9.22918 27.3918C9.16257 27.129 9.18334 26.8515 9.28829 26.6015C9.39325 26.3514 9.57673 26.1424 9.81101 26.0058C10.154 25.7283 10.4307 25.3776 10.6207 24.9794C10.8108 24.5812 10.9094 24.1456 10.9094 23.7044C10.9094 23.2631 10.8108 22.8275 10.6207 22.4293C10.4307 22.0311 10.154 21.6804 9.81101 21.4029C9.57673 21.2664 9.39325 21.0572 9.28829 20.8072C9.18334 20.5572 9.16257 20.2798 9.22918 20.0169C10.1059 16.6723 12.1208 13.7377 14.9272 11.718C15.0584 11.6046 15.2116 11.5198 15.3774 11.4689C15.5431 11.418 15.7176 11.4021 15.8898 11.4223C16.062 11.4425 16.228 11.4984 16.3775 11.5863C16.5269 11.6741 16.6564 11.7922 16.7577 11.9328C16.859 12.0735 16.9299 12.2337 16.966 12.4033C17.002 12.5728 17.0024 12.7481 16.967 12.9178C16.9316 13.0875 16.8613 13.248 16.7605 13.3891C16.6598 13.5301 16.5308 13.6486 16.3817 13.7371C14.2759 15.2562 12.7015 17.3993 11.8814 19.8629C12.8583 20.9035 13.4021 22.2771 13.4021 23.7044C13.4021 25.1316 12.8583 26.5053 11.8814 27.5458C12.7015 30.0094 14.2759 32.1525 16.3817 33.6716C16.6461 33.8607 16.8251 34.1467 16.8796 34.4672C16.9341 34.7878 16.8596 35.1168 16.6725 35.3827C16.5603 35.5481 16.4101 35.6841 16.2344 35.7794C16.0588 35.8747 15.8628 35.9264 15.663 35.9303Z" />
<path d="M9.22953 28.6751C8.20898 28.8542 7.15807 28.715 6.21941 28.2762C5.28075 27.8374 4.49983 27.1205 3.98271 26.2226C3.46559 25.3247 3.23728 24.2894 3.32882 23.2573C3.42037 22.2252 3.82732 21.2463 4.49441 20.4535C5.16149 19.6606 6.0564 19.0923 7.05763 18.8256C8.05886 18.5589 9.1179 18.6068 10.091 18.9627C11.0641 19.3187 11.9041 19.9654 12.4969 20.8152C13.0897 21.6651 13.4066 22.6767 13.4046 23.7129C13.4998 24.9226 13.1153 26.1211 12.3341 27.0496C11.5528 27.9781 10.4377 28.562 9.22953 28.6751ZM9.22953 21.2317C8.32264 21.2317 7.51841 22.3611 7.51841 23.7129C7.51841 25.0647 8.28841 26.1769 9.22953 26.1769C10.1706 26.1769 10.9406 25.0476 10.9406 23.7129C10.9406 22.3782 10.1364 21.2317 9.22953 21.2317Z" />
</svg>
