<svg width="66" height="44" xmlns="http://www.w3.org/2000/svg"><path d="M21.69 17.79h-9.63a4.27 4.27 0 0 1-4.27-4.12v-.28C7.8 6.27 11.85.36 16.83.36c4.99 0 9.06 5.85 9.06 13.03v.28a4.27 4.27 0 0 1-4.2 4.12ZM16.88 2.44c-3.85 0-6.97 4.91-6.97 10.95v.26a2.14 2.14 0 0 0 2.15 2.06h9.63a2.15 2.15 0 0 0 2.16-2.06v-.26c0-6.04-3.1-10.95-6.97-10.95Z"/><path d="M18.51 13.59h-3.26a1.95 1.95 0 0 1-1.95-1.94V8.4a1.96 1.96 0 0 1 1.95-1.95h3.26a1.95 1.95 0 0 1 1.94 1.95v3.26a1.94 1.94 0 0 1-1.94 1.94Zm-3.13-2.08h3V8.52h-3v2.99Z"/><path d="M16.88 8.52a1.04 1.04 0 0 1-1.04-1.04V6.3a1.04 1.04 0 0 1 2.07 0v1.22a1.04 1.04 0 0 1-1.03 1Zm0 5.82a1.04 1.04 0 0 1-1.04-1.04v-.75a1.04 1.04 0 0 1 2.07 0v.75a1.04 1.04 0 0 1-1.03 1.04Zm20.82 3.45h-9.62a4.27 4.27 0 0 1-4.27-4.12v-.28C23.8 6.27 27.86.36 32.85.36c4.98 0 9.05 5.85 9.05 13.03v.3a4.27 4.27 0 0 1-4.2 4.1ZM32.9 2.44c-3.84 0-6.96 4.91-6.96 10.95v.26a2.14 2.14 0 0 0 2.15 2.06h9.62a2.15 2.15 0 0 0 2.16-2.06v-.26c0-6.04-3.13-10.95-6.97-10.95Z"/><path d="M34.53 13.59h-3.26a1.93 1.93 0 0 1-1.98-1.94V8.4a1.95 1.95 0 0 1 1.93-1.95h3.26a1.95 1.95 0 0 1 1.93 1.95v3.26a1.94 1.94 0 0 1-1.88 1.94ZM31.4 11.5h2.98V8.52H31.4v2.99Z"/><path d="M32.89 8.52a1.04 1.04 0 0 1-1.04-1.04V6.3a1.04 1.04 0 0 1 2.08 0v1.22a1.04 1.04 0 0 1-1.04 1Zm0 5.82a1.04 1.04 0 0 1-1.04-1.04v-.75a1.04 1.04 0 0 1 2.08 0v.75a1.04 1.04 0 0 1-1.04 1.04Zm20.83 3.45h-9.63a4.27 4.27 0 0 1-4.27-4.12v-.28c0-7.12 4.06-13.03 9.04-13.03 4.98 0 9.05 5.85 9.05 13.03v.3a4.27 4.27 0 0 1-4.2 4.1ZM48.9 2.44c-3.84 0-6.96 4.91-6.96 10.95v.26a2.14 2.14 0 0 0 2.15 2.06h9.63a2.15 2.15 0 0 0 2.16-2.06v-.26c0-6.04-3.13-10.95-6.98-10.95Z"/><path d="M50.54 13.59h-3.26a1.94 1.94 0 0 1-1.93-1.94V8.4a1.95 1.95 0 0 1 1.93-1.95h3.26a1.95 1.95 0 0 1 1.94 1.95v3.26a1.94 1.94 0 0 1-1.94 1.94Zm-3.13-2.08h2.99V8.52h-3v2.99Z"/><path d="M48.9 8.52a1.04 1.04 0 0 1-1.03-1.04V6.3a1.04 1.04 0 0 1 2.07 0v1.22a1.04 1.04 0 0 1-1.04 1Zm0 5.82a1.04 1.04 0 0 1-1.03-1.04v-.75a1.04 1.04 0 0 1 2.07 0v.75a1.04 1.04 0 0 1-1.04 1.04Z"/><path d="M35.42 11.04A1.05 1.05 0 0 1 34.38 10V8.58H31.4V10c0 .28-.12.54-.3.74a1.01 1.01 0 0 1-.76.3c-3.84 0-7.56-.21-11.02-.48a1.04 1.04 0 0 1-.95-1.04v-1h-2.99v.5a1.03 1.03 0 0 1-1.15 1.04C.7 8.42.7 5.9.7 4.96a1.04 1.04 0 0 1 2.06 0C3 5.45 5.35 6.84 13.39 7.9a1.94 1.94 0 0 1 1.86-1.42h3.26a1.95 1.95 0 0 1 1.94 1.95v.17c2.85.2 5.8.33 8.88.39v-.56a1.95 1.95 0 0 1 1.94-1.95h3.26A1.95 1.95 0 0 1 36.4 8.4v.56c3.07 0 6.06-.19 8.88-.39V8.4a1.95 1.95 0 0 1 1.93-1.95h3.26a1.95 1.95 0 0 1 1.87 1.43c8.13-1.07 10.42-2.48 10.62-2.95A1.01 1.01 0 0 1 64.39 4a1.05 1.05 0 0 1 .63.99c0 .94 0 3.46-13.52 5.1a1.05 1.05 0 0 1-1.17-1.05v-.5h-2.99v1a1.04 1.04 0 0 1-.95 1.04c-3.46.27-7.12.43-11.02.48l.04-.01ZM16.88 43.11c-4.99 0-9.04-5.85-9.04-13.02v-.29a4.27 4.27 0 0 1 4.27-4.11h9.62a4.27 4.27 0 0 1 4.27 4.1v.3c-.07 7.17-4.13 13.02-9.12 13.02Zm-4.82-15.34a2.14 2.14 0 0 0-2.15 2.06v.26c0 6.03 3.12 10.94 6.97 10.94 3.84 0 6.97-4.9 6.97-10.94v-.26a2.15 2.15 0 0 0-2.16-2.06h-9.63Z"/><path d="M18.51 37.02h-3.26a1.95 1.95 0 0 1-1.95-1.94v-3.26a1.95 1.95 0 0 1 1.95-1.93h3.26a1.94 1.94 0 0 1 1.94 1.93v3.26a1.94 1.94 0 0 1-1.94 1.94Zm-3.13-2.07h3v-2.98h-3v2.98Z"/><path d="M16.88 38.21a1.04 1.04 0 0 1-1.04-1.03v-1.19a1.04 1.04 0 1 1 2.06 0v1.19a1.04 1.04 0 0 1-1.02 1.03Zm0-6.24a1.04 1.04 0 0 1-1.04-1.04v-.76a1.04 1.04 0 0 1 2.07 0v.76a1.04 1.04 0 0 1-1.03 1.04Zm16.01 11.14c-4.98 0-9.04-5.85-9.04-13.02v-.29a4.27 4.27 0 0 1 4.27-4.11h9.62a4.27 4.27 0 0 1 4.27 4.1v.3c-.07 7.17-4.18 13.02-9.12 13.02Zm-4.81-15.34a2.14 2.14 0 0 0-2.15 2.06v.26c0 6.03 3.12 10.94 6.96 10.94s6.97-4.9 6.97-10.94v-.26a2.15 2.15 0 0 0-2.16-2.06h-9.62Z"/><path d="M34.53 37.02h-3.26a1.94 1.94 0 0 1-1.98-1.94v-3.26a1.94 1.94 0 0 1 1.93-1.93h3.26a1.94 1.94 0 0 1 1.93 1.93v3.26a1.94 1.94 0 0 1-1.88 1.94Zm-3.13-2.07h2.98v-2.98H31.4v2.98Z"/><path d="M32.89 38.21a1.04 1.04 0 0 1-1.04-1.03v-1.19a1.04 1.04 0 0 1 2.08 0v1.19a1.04 1.04 0 0 1-1.04 1.03Zm0-6.24a1.04 1.04 0 0 1-1.04-1.04v-.76a1.04 1.04 0 0 1 2.08 0v.76a1.04 1.04 0 0 1-1.04 1.04ZM48.9 43.11c-4.98 0-9.04-5.85-9.04-13.02v-.3a4.27 4.27 0 0 1 4.28-4.1h9.62a4.27 4.27 0 0 1 4.27 4.1v.3c-.07 7.17-4.13 13.02-9.13 13.02Zm-4.8-15.34a2.14 2.14 0 0 0-2.16 2.06v.26c0 6.03 3.12 10.94 6.96 10.94 3.85 0 6.98-4.9 6.98-10.94v-.26a2.15 2.15 0 0 0-2.16-2.06h-9.63Z"/><path d="M50.54 37.02h-3.26a1.94 1.94 0 0 1-1.93-1.94v-3.26a1.94 1.94 0 0 1 1.93-1.93h3.26a1.94 1.94 0 0 1 1.94 1.93v3.26a1.94 1.94 0 0 1-1.94 1.94Zm-3.13-2.07h2.99v-2.98h-3v2.98Z"/><path d="M48.9 38.21a1.04 1.04 0 0 1-1.03-1.03v-1.19a1.04 1.04 0 1 1 2.07 0v1.19a1.04 1.04 0 0 1-1.04 1.03Zm0-6.24a1.04 1.04 0 0 1-1.03-1.04v-.76a1.04 1.04 0 1 1 2.07 0v.76a1.04 1.04 0 0 1-1.04 1.04Z"/><path d="M1.73 39.58a1.05 1.05 0 0 1-1.02-1.07c0-.94 0-3.46 13.52-5.1a1.03 1.03 0 0 1 1.15 1.05v.5h3v-1a1.04 1.04 0 0 1 .94-1.04c3.46-.27 7.12-.43 11.02-.48a1.01 1.01 0 0 1 .76.3c.19.2.3.46.3.73v1.43h2.98v-1.43a1.04 1.04 0 0 1 .32-.74 1 1 0 0 1 .74-.3c3.86 0 7.57.22 11.02.49a1.04 1.04 0 0 1 .95 1.04v1h2.99v-.5a1.05 1.05 0 0 1 1.17-1.04c13.52 1.63 13.52 4.15 13.52 5.1a1.04 1.04 0 0 1-2.08 0c-.18-.42-2.48-1.83-10.6-2.85a1.94 1.94 0 0 1-1.87 1.42h-3.26a1.94 1.94 0 0 1-1.93-1.94v-.17c-2.85-.2-5.8-.32-8.89-.38v.55a1.94 1.94 0 0 1-1.93 1.94h-3.26a1.94 1.94 0 0 1-1.98-2v-.52c-3.09 0-6.07.19-8.88.38v.18a1.94 1.94 0 0 1-1.94 1.93h-3.22a1.94 1.94 0 0 1-1.86-1.42C5.26 36.7 2.95 38.1 2.77 38.58a1.01 1.01 0 0 1-1.04 1Z"/></svg>