<svg width="59" height="66" xmlns="http://www.w3.org/2000/svg"><path d="M36.67 9.48h-.28a19.33 19.33 0 0 1-7.62-3.96 1.1 1.1 0 1 1 1.5-1.6 17.38 17.38 0 0 0 6.67 3.41 1.1 1.1 0 0 1-.28 2.15h.01Z"/><path d="M53.02 25.22h-.08a1.1 1.1 0 0 1-1-1.17c.25-3.51.25-5.78.25-5.8 0-8.7-6.21-15.78-13.83-15.78-2.99 0-5.87 1.07-8.14 3a1.13 1.13 0 0 1-1.4 0 12.6 12.6 0 0 0-8.14-3c-7.63 0-13.84 7.08-13.84 15.77 0 0 0 2.17.24 5.53a1.1 1.1 0 1 1-2.18.15c-.25-3.44-.25-5.59-.25-5.68 0-9.9 7.19-18 16.03-18 3.2 0 6.3 1.06 8.84 3 2.54-1.94 5.64-3 8.84-3 8.83 0 16.02 8.04 16.02 18 0 .1 0 2.36-.27 6a1.11 1.11 0 0 1-1.1.98ZM40.74 65.74c-.4 0-.8-.06-1.2-.16a5.1 5.1 0 0 1-3.57-5.04v-6.71c0-4.11-2.9-7.5-6.45-7.5-3.56 0-6.46 3.33-6.46 7.5v6.7a5.12 5.12 0 0 1-3.55 5.05 4.5 4.5 0 0 1-5.12-2.13c-5.31-8.6-7.7-19.87-8.75-27.8a1.04 1.04 0 0 1 .25-.85 1.1 1.1 0 0 1 .83-.38h45.6a1.1 1.1 0 0 1 .82.38 1.04 1.04 0 0 1 .31.93c-1.05 7.94-3.43 19.2-8.75 27.8a4.58 4.58 0 0 1-3.96 2.21ZM29.52 44.2c4.77 0 8.64 4.32 8.64 9.64v6.7a2.87 2.87 0 0 0 1.97 3 2.3 2.3 0 0 0 2.65-1.15c4.85-7.85 7.16-18 8.27-25.7H7.98c1.11 7.62 3.42 17.85 8.27 25.7a2.3 2.3 0 0 0 2.66 1.16 2.87 2.87 0 0 0 1.96-3v-6.71c0-5.29 3.87-9.6 8.65-9.6v-.04Z"/><path d="M41.7 30.9a1.1 1.1 0 0 1-.99-.63 12.37 12.37 0 0 0-22.39 0 1.11 1.11 0 0 1-1.19.61c-4.57-.82-12.24-2.82-12.24-7.02 0-5.29 12.4-8.05 24.63-8.05 12.23 0 24.62 2.76 24.62 8.05 0 4.2-7.67 6.2-12.24 7.02l-.2.02Zm-12.18-9.94a14.62 14.62 0 0 1 12.78 7.6c6.65-1.28 9.65-3.34 9.65-4.7 0-2.45-8.54-5.86-22.43-5.86C15.62 18 7 21.41 7 23.86c0 1.38 3 3.42 9.65 4.7a14.62 14.62 0 0 1 12.87-7.6Z"/><path d="M42.95 36.63H15.93a1.08 1.08 0 0 1-1.08-1.08 14.57 14.57 0 0 1 29.15 0 1.08 1.08 0 0 1-1.05 1.08ZM17.1 34.45h24.7a12.4 12.4 0 0 0-24.7 0Zm36.64-3.55a1.15 1.15 0 0 1-.9-.45 1.1 1.1 0 0 1 .25-1.5l3.62-2.6a1.1 1.1 0 0 1 1.27 1.77l-3.61 2.6c-.19.12-.4.18-.63.18Zm3.6 3.96c-.21 0-.42-.06-.6-.18l-1.38-.92a1.1 1.1 0 0 1 1.21-1.81l1.37.91a1.08 1.08 0 0 1-.6 2ZM5.3 30.9c-.23 0-.45-.08-.64-.21l-3.61-2.6a1.1 1.1 0 0 1 1.27-1.77l3.62 2.6a1.1 1.1 0 0 1 .25 1.5 1.16 1.16 0 0 1-.9.48Zm-3.6 3.96a1.08 1.08 0 0 1-.92-.48 1.1 1.1 0 0 1 .3-1.5l1.38-.92a1.1 1.1 0 0 1 1.21 1.82l-1.38.91c-.18.12-.39.17-.6.17Z"/></svg>