<svg width="61" height="62" xmlns="http://www.w3.org/2000/svg"><path d="M11.63 61.94a3.89 3.89 0 0 1-3.29-1.88c-3.16-4.97-3.57-8.77-4.04-13.17a88.4 88.4 0 0 0-.47-3.79 19.93 19.93 0 0 1-3.16-8.9C.3 30.45.3 28 .3 27.91c0-7.9 5.92-14.33 13.2-14.33a1.04 1.04 0 1 1 0 2.08c-6.14 0-11.12 5.5-11.12 12.25 0 0 0 2.46.34 6.07.26 2.9 1.24 5.7 2.85 8.13.09.12.14.27.15.41.23 1.43.38 2.85.52 4.1.45 4.27.82 7.72 3.73 12.29a1.77 1.77 0 0 0 2.03.84 2.1 2.1 0 0 0 1.43-2.14v-5.28a7.2 7.2 0 1 1 14.36 0v5.28a2.1 2.1 0 0 0 1.42 2.14 1.78 1.78 0 0 0 2.04-.84 21.44 21.44 0 0 0 3.03-7.32 1.04 1.04 0 1 1 2.04.43 23.13 23.13 0 0 1-3.34 8 3.83 3.83 0 0 1-4.35 1.72 4.27 4.27 0 0 1-2.95-4.13v-5.28a5.14 5.14 0 0 0-10-2.12c-.22.68-.3 1.4-.22 2.12v5.28a4.27 4.27 0 0 1-3.84 4.32Zm47.43-17.31a1.07 1.07 0 0 1-.9-.5L33.83 3.46a1.42 1.42 0 0 0-1.4-.66c-.17.03-.35.1-.5.19a1.32 1.32 0 0 0-.63.85 1.33 1.33 0 0 0 .16 1.06l21.18 35.4a1.04 1.04 0 0 1-1.78 1.07L29.66 5.95A3.46 3.46 0 0 1 33.48.81a3.44 3.44 0 0 1 2.13 1.58l24.33 40.67a1.03 1.03 0 0 1-.88 1.57Z"/><path d="M35.83 48.67a1 1 0 0 1-.83-.43 1.02 1.02 0 0 1-.13-1.02c3.1-7.3-4.8-12.61-5.15-12.81a1.01 1.01 0 0 1-.47-.82 1.07 1.07 0 0 1 .39-.86c2.12-1.7 2.16-3.28 1.93-4.17-7.64 3-14.59-3.92-14.89-4.27a1.02 1.02 0 0 1 .49-1.74c4.68-1.18 6.54-2.4 7.28-3.15-5.13-.94-8.15-8.04-8.28-8.37a1.03 1.03 0 0 1 .21-1.12.98.98 0 0 1 1.1-.24c.27.08 6.68 2.33 13.74-3.02a1.05 1.05 0 0 1 1.42.2 1.04 1.04 0 0 1-.2 1.42A17.93 17.93 0 0 1 19 12.1c1.28 2.2 3.73 5.5 6.83 5.28a1.04 1.04 0 0 1 1.06.73 2.35 2.35 0 0 1-.3 1.8c-.88 1.59-3.25 2.95-7.05 4.1 2.34 1.77 7.22 4.6 12.05 2.17a1.01 1.01 0 0 1 1.3.33 5.4 5.4 0 0 1-1.03 6.87c2.2 1.82 7 6.6 5.48 12.81 2.99-.74 9.2-2.99 11.38-9.16a1.04 1.04 0 0 1 1.33-.63 1.05 1.05 0 0 1 .62 1.34c-3.38 9.43-14.33 10.79-14.8 10.84l-.04.09ZM8.41 25.82a1.03 1.03 0 0 1-1.02-1.04v-1.16a1.04 1.04 0 1 1 2.06 0v1.16a1.02 1.02 0 0 1-1.04 1.04Zm0 5.88a1.03 1.03 0 0 1-1.02-1.04V29.5a1.04 1.04 0 1 1 2.06 0v1.16a1.02 1.02 0 0 1-1.04 1.04Zm3.53-3.53h-1.17a1.04 1.04 0 1 1 0-2.06h1.17a1.04 1.04 0 1 1 0 2.06Zm-5.88 0H4.9a1.04 1.04 0 1 1 0-2.06h1.16a1.04 1.04 0 1 1 0 2.06Z"/></svg>