<svg width="60" height="77" xmlns="http://www.w3.org/2000/svg"><path d="M36.83 10.12h-.33c-2.8-.74-5.41-2.1-7.63-3.97a1.28 1.28 0 1 1 1.75-1.87c1.9 1.6 4.14 2.75 6.55 3.38a1.28 1.28 0 0 1-.34 2.5v-.04Z"/><path d="M39.88 45.67H19.57A12.6 12.6 0 0 1 7.17 34.9L5.2 21.15c-.49-3.19-.17-6.44.91-9.47A16.11 16.11 0 0 1 20.93.64c3.15.02 6.22 1.04 8.75 2.92 2.53-1.88 5.6-2.9 8.75-2.92a16.11 16.11 0 0 1 14.9 11.11 19.3 19.3 0 0 1 .91 9.47l-1.96 13.75a12.6 12.6 0 0 1-12.4 10.7ZM20.98 3.2a13.61 13.61 0 0 0-12.44 9.38 16.85 16.85 0 0 0-.75 8.23l1.94 13.75a10.04 10.04 0 0 0 9.89 8.57h20.26a10.04 10.04 0 0 0 9.88-8.57l1.95-13.75c.43-2.77.17-5.6-.76-8.23A13.61 13.61 0 0 0 38.5 3.2a12.25 12.25 0 0 0-7.93 2.98 1.31 1.31 0 0 1-1.64 0 12.25 12.25 0 0 0-7.95-2.98Z"/><path d="M29.75 76.19a1.28 1.28 0 0 1-1.24-.98 1.3 1.3 0 0 1 .94-1.54l1.14-.26-11.02-.42a1.28 1.28 0 0 1-1.23-1.16 1.31 1.31 0 0 1 .98-1.36l11.27-2.73-11-.46a1.3 1.3 0 0 1-1.23-1.15 1.28 1.28 0 0 1 .98-1.37l11.23-2.66-11-.45a1.28 1.28 0 0 1-.25-2.5l11.25-2.66-11-.46a1.28 1.28 0 0 1-.25-2.52l11.23-2.66-11-.45a1.26 1.26 0 0 1-.23-2.5l20.26-4.66a1.28 1.28 0 1 1 .58 2.49l-11.23 2.66 11 .45a1.26 1.26 0 0 1 1 2c-.19.26-.45.43-.75.5L28.94 54l11 .46a1.28 1.28 0 0 1 .24 2.52l-11.24 2.66 11 .43a1.31 1.31 0 0 1 1.23 1.16 1.28 1.28 0 0 1-.98 1.36l-11.25 2.66 11 .46a1.28 1.28 0 0 1 .25 2.52l-11.23 2.64 11 .45a1.28 1.28 0 0 1 1.21 1.16 1.26 1.26 0 0 1-.96 1.36l-10.15 2.31c-.1.03-.2.04-.31.04Zm18.61-7.61a1.26 1.26 0 0 1-1.05-.55 1.28 1.28 0 0 1 .32-1.74l9.41-6.46a1.28 1.28 0 0 1 1.45 2.12l-9.4 6.43c-.22.14-.47.2-.73.2Zm.11-14.19a1.28 1.28 0 0 1-.72-2.33l9.41-6.46a1.28 1.28 0 1 1 1.44 2.1l-9.4 6.46c-.21.15-.47.23-.73.23ZM11.15 68.58c-.26 0-.5-.08-.72-.23l-9.4-6.46a1.26 1.26 0 0 1-.33-1.75 1.28 1.28 0 0 1 1.75-.33l9.42 6.46a1.3 1.3 0 0 1 .33 1.75 1.31 1.31 0 0 1-1.05.56Zm-.1-14.19c-.26 0-.51-.08-.72-.23L.9 47.7a1.28 1.28 0 0 1-.33-1.75 1.26 1.26 0 0 1 1.75-.33l9.41 6.46a1.28 1.28 0 0 1-.71 2.33l.02-.02Z"/></svg>