<svg width="58" height="52" fill="none" xmlns="http://www.w3.org/2000/svg"><path d="M34.9 36.52a.66.66 0 0 1-.45-.15.45.45 0 0 1-.17-.37V16.34l-9.54 19.83a.6.6 0 0 1-.59.32H24a.6.6 0 0 1-.59-.32l-9.47-19.32v19.16a.5.5 0 0 1-.18.37.67.67 0 0 1-.88 0 .5.5 0 0 1-.18-.37V14.18c0-.04.02-.09.04-.13a.55.55 0 0 1 .58-.4.6.6 0 0 1 .59.32l10.15 20.77 10-20.75c.13-.26.34-.34.68-.34h.17a.7.7 0 0 1 .6.33c.02.06.04.13.04.2V35.5h1.7V14.2a.5.5 0 0 1 .17-.38l.18-.17h.26c.17 0 .32.06.45.17a.5.5 0 0 1 .17.37v21.83a.45.45 0 0 1-.17.36.55.55 0 0 1-.1.07.81.81 0 0 1-.35.08H34.9Z" fill="#1A3444"/><path d="M44.76 13.56c.16 0 .31.05.44.15a.45.45 0 0 1 .17.36.5.5 0 0 1-.17.38.63.63 0 0 1-.44.16h-6.29V35.6a.49.49 0 0 1-.18.39.73.73 0 0 1-.87 0 .48.48 0 0 1-.18-.4V14.13a.48.48 0 0 1 .26-.4.7.7 0 0 1 .45-.16h6.8ZM40 36.57a.74.74 0 0 1-.45-.15.44.44 0 0 1-.2-.36v-11.6a.48.48 0 0 1 .2-.38c.12-.1.28-.17.45-.16a.63.63 0 0 1 .57.33.5.5 0 0 1 .05.2V35.5h4.13a.63.63 0 0 1 .57.33.5.5 0 0 1 .05.21.45.45 0 0 1-.18.37.67.67 0 0 1-.44.15l-4.75.02Zm6.48-22.96c1.92-.01 3.8.5 5.45 1.51a11.28 11.28 0 0 1 5.41 9.75c0 2.05-.48 4.28-1.46 6a11.1 11.1 0 0 1-3.95 4.1c-1.64 1-3.53 1.53-5.45 1.51a.67.67 0 0 1-.44-.15.49.49 0 0 1 0-.75c.12-.1.28-.16.44-.15 1.7 0 3.37-.46 4.81-1.36a9.77 9.77 0 0 0 3.5-3.72 11.94 11.94 0 0 0 1.3-5.48c0-1.79-.44-3.55-1.3-5.12a9.77 9.77 0 0 0-3.5-3.72 9.02 9.02 0 0 0-4.81-1.36.63.63 0 0 1-.44-.17.5.5 0 0 1-.13-.58.45.45 0 0 1 .13-.16c.12-.1.27-.15.43-.15Z" fill="#1A3444"/><path fill-rule="evenodd" clip-rule="evenodd" d="M41.79 7.12c.18-.09.36-.2.53-.32l-.53.32Zm-14.71-1.7C15.68.75 8.4-2.45 3.59 3.92-.4 9.2-1.04 17.5 1.54 28.34c2.3 9.76 7.13 16.35 10.84 19.91 3.62 3.48 8.39 4.69 11.53 2.48 1.54-1.08 2.44-2.08 3.85-4.67a20.7 20.7 0 0 0 1.78-4.67s-4.8 10.02-10.3 7.83c-5.49-2.2-11.7-9.28-14.27-22.66-1.8-9.36-.69-21.15 4.67-22.52 5.35-1.37 12.5 2.34 17.44 3.7 4.94 1.37 8.92 1.8 11.26.97a20.7 20.7 0 0 0 3.45-1.6c-1.4.7-5.69 2-14.71-1.7Z" fill="#38BCEA"/><path fill-rule="evenodd" clip-rule="evenodd" d="M49.32 3.37c-3.42-2.34-6.5-2.24-8.65-2.07-4.03.32-7.28 2.2-7.28 2.2s7-2.03 12.08.41c4.5 2.15 4.8 5.9 4.8 5.9s1 .22 2.51 1.14c1.44.87 1.78 1.33 1.78 1.33s-1.11-6.12-5.24-8.91Z" fill="#38BCEA"/></svg>