<svg width="67" height="62" xmlns="http://www.w3.org/2000/svg"><path d="M39.94 14.9a.87.87 0 0 1-.29 0 17.31 17.31 0 0 1-6.9-3.59 1.1 1.1 0 1 1 1.5-1.58 15.55 15.55 0 0 0 5.97 2.98 1.09 1.09 0 0 1-.28 2.14v.04Z"/><path d="M43.6 61.38c-.38 0-.76-.05-1.13-.15a4.69 4.69 0 0 1-3.26-4.64v-5.97a6.2 6.2 0 0 0-5.7-6.57c-3.14 0-5.7 2.99-5.7 6.57v5.97a4.69 4.69 0 0 1-3.27 4.64 4.15 4.15 0 0 1-4.7-1.95c-8.72-14.1-8.78-35.64-8.78-36.55 0-8.96 6.5-16.24 14.5-16.24 2.87 0 5.65.94 7.94 2.66a13.3 13.3 0 0 1 7.94-2.66c8 0 14.51 7.28 14.51 16.24 0 .9 0 22.38-8.78 36.55a4.2 4.2 0 0 1-3.58 2.1ZM33.5 41.82c4.35 0 7.88 3.92 7.88 8.74v5.97a2.46 2.46 0 0 0 1.7 2.54 1.94 1.94 0 0 0 2.24-1c8.4-13.57 8.45-35.2 8.45-35.4 0-7.76-5.54-14.06-12.33-14.06-2.65.01-5.22.97-7.23 2.7a1.12 1.12 0 0 1-1.4 0 11.18 11.18 0 0 0-7.25-2.7c-6.79 0-12.32 6.3-12.32 14.06 0 .2 0 21.83 8.44 35.4a1.96 1.96 0 0 0 2.26 1 2.46 2.46 0 0 0 1.7-2.54v-5.97c0-4.86 3.52-8.79 7.86-8.79v.05Z"/><path d="M33.5 34.02C21.95 34.02.12 32.53.12 26.98c0-.9 0-3.61 11.94-5.54a1.06 1.06 0 0 1 1.24.9 1.09 1.09 0 0 1-.9 1.25C4.06 24.94 2.36 26.58 2.36 27c0 1.65 11.03 4.86 31.22 4.86 20.2 0 31.22-3.21 31.22-4.87 0-.37-1.7-2.04-10.04-3.39a1.09 1.09 0 1 1 .35-2.15c11.87 1.93 11.87 4.65 11.87 5.54-.08 5.57-21.92 7.04-33.48 7.04Z"/><path d="M11.74 48.78a2.5 2.5 0 0 1-1.85-.67c-.97-.97-1.71-3.06 2.99-10.09a1.09 1.09 0 1 1 1.82 1.2c-3.5 5.28-3.43 7.15-3.22 7.36C12.64 47.75 22.7 42.23 37 27.95 51.28 13.67 56.79 3.6 55.62 2.43c-.28-.28-3.24-.12-11.43 6.13a1.09 1.09 0 0 1-1.33-1.71C54.34-1.93 56.46.19 57.16.88c3.94 3.94-10.45 20.41-18.63 28.6-7.26 7.22-20.96 19.3-26.79 19.3Z"/><path d="M55.23 48.84c-1.6 0-4.3-.97-9.16-4.3a133.27 133.27 0 0 1-17.55-15.05 135.55 135.55 0 0 1-15.04-17.54C8.13 4.18 8.86 1.92 9.89.9c.7-.7 2.82-2.82 14.3 5.97a1.09 1.09 0 1 1-1.33 1.72c-8.18-6.25-11.13-6.43-11.43-6.13-.3.3-.27 2.32 3.84 8.28a132.2 132.2 0 0 0 14.8 17.24c14.28 14.28 24.34 19.8 25.5 18.62.22-.2.29-2.07-3.2-7.36a1.09 1.09 0 1 1 1.8-1.2c4.66 7.04 3.91 9.13 2.99 10.1a2.45 2.45 0 0 1-1.93.71Z"/></svg>