<svg width="77" height="80" xmlns="http://www.w3.org/2000/svg"><path d="M56.56 28.1c-.22.01-.45-.05-.65-.16a15.8 15.8 0 0 1-5.03-4.8 1.25 1.25 0 0 1 .45-1.7 1.22 1.22 0 0 1 1.7.42 13.5 13.5 0 0 0 4.2 3.94 1.25 1.25 0 0 1 .41 1.71 1.2 1.2 0 0 1-1.08.6Z"/><path d="M49.02 68.15a3.8 3.8 0 0 1-2.02-.58 4.4 4.4 0 0 1-1.71-5.03l1.45-5.14a5.84 5.84 0 0 0-.27-4.17 4.33 4.33 0 0 0-2.72-2.38 4.4 4.4 0 0 0-3.58.56 5.9 5.9 0 0 0-2.46 3.43l-1.46 5.13a4.38 4.38 0 0 1-4.15 3.32 3.9 3.9 0 0 1-3.79-3c-3.93-14.06 1.27-32.32 1.5-33.09 2.22-7.7 9.63-12.33 16.52-10.26 2.4.7 4.52 2.13 6.06 4.1a11.9 11.9 0 0 1 7.32-.25 12.34 12.34 0 0 1 7.7 6.7 15.4 15.4 0 0 1 .77 10.87c-.22.77-5.52 19-16.34 28.8a4.09 4.09 0 0 1-2.82.99Zm-6.47-19.92a6.65 6.65 0 0 1 6.1 3.99 8.28 8.28 0 0 1 .45 5.92l-1.47 5.13a1.9 1.9 0 0 0 .69 2.23 1.44 1.44 0 0 0 1.7-.28C60.3 55.88 65.6 37.85 65.66 37.6c.9-3.01.68-6.25-.63-9.1a9.77 9.77 0 0 0-6.15-5.38 9.58 9.58 0 0 0-6.55.5 1.27 1.27 0 0 1-1.54-.45 9.57 9.57 0 0 0-5.18-3.97c-5.58-1.6-11.6 2.28-13.45 8.66 0 .17-5.14 18.35-1.5 31.73a1.45 1.45 0 0 0 1.4 1.18 1.92 1.92 0 0 0 1.7-1.53l1.46-5.13a8.38 8.38 0 0 1 3.52-4.79 7.15 7.15 0 0 1 3.87-1.08h-.05Z"/><path d="M41.08 79.27A20.38 20.38 0 0 1 22.36 67.7a10.15 10.15 0 0 0-9.19-6.17H6.7a1.25 1.25 0 1 1 0-2.48h6.48a12.61 12.61 0 0 1 11.47 7.63 18.45 18.45 0 0 0 32.88 0A12.6 12.6 0 0 1 69 59.05h6.48a1.25 1.25 0 1 1 0 2.48H69a10.27 10.27 0 0 0-9.2 6.17 20.35 20.35 0 0 1-18.71 11.57ZM11.51 36.25a5.56 5.56 0 0 1-5.44-4.44L.1 2.22a1.21 1.21 0 0 1 1-1.49 1.23 1.23 0 0 1 1.48.98l5.97 29.56a3.06 3.06 0 0 0 5.54 1.08c.45-.67.6-1.5.45-2.29l-3.77-18.4a1.25 1.25 0 0 1 2.45-.47l3.73 18.43a5.51 5.51 0 0 1-.82 4.15 5.6 5.6 0 0 1-4.62 2.48Z"/><path d="M25.17 59.71c-.16.03-.31.03-.47 0l-13.55-5.49a1.25 1.25 0 0 1-.65-1.71l2.9-6.14-2.27-11.14a1.25 1.25 0 0 1 1.47-1.48 1.23 1.23 0 0 1 .98.98l2.35 11.53c.05.27.01.55-.1.8l-2.5 5.31 12.3 5a1.25 1.25 0 0 1 .7 1.71 1.27 1.27 0 0 1-1.16.63Zm14.5-25.53a1.23 1.23 0 0 1-1.16-.78l-1.38-3.58a1.3 1.3 0 0 1 0-.87l1.23-3.42-2.57-5.57a1.25 1.25 0 1 1 2.26-1.04l2.79 6c.12.3.12.65 0 .95l-1.25 3.52 1.23 3.07a1.28 1.28 0 0 1-1.15 1.72Z"/><path d="M42.72 27.68c-.12.02-.25.02-.37 0l-3.05-.96a1.27 1.27 0 0 1-.59-2 1.23 1.23 0 0 1 1.34-.38l3.05.96a1.25 1.25 0 0 1-.38 2.43v-.05Z"/></svg>