<svg width="60" height="61" xmlns="http://www.w3.org/2000/svg"><path d="M30.66 10.4a1.4 1.4 0 0 1-.54.03 17.21 17.21 0 0 1-6.9-3.59 1.04 1.04 0 0 1 1.42-1.5 15.66 15.66 0 0 0 6.05 3.06 1.02 1.02 0 0 1 .72 1.26 1.05 1.05 0 0 1-.75.74Zm9.08 50.4c-.2.04-.42.05-.63 0a1.01 1.01 0 0 1-.72-.97c0-.09-.2-8.64-8.54-18.86a1.03 1.03 0 1 1 1.6-1.31 39.55 39.55 0 0 1 4.27 5.96c2.26 3.86 8.22 4.45 8.94.04a19.4 19.4 0 0 0-.9-10.3 7.49 7.49 0 0 1-.46-3.86c.18-1.21.35-2.46.5-3.7a1.04 1.04 0 1 1 2.06.24 80.23 80.23 0 0 1-.51 3.77c-.14.94-.03 1.9.34 2.78 1.42 3.53 3.72 13.1-5.35 25.83a1.02 1.02 0 0 1-.6.37Z"/><path d="M8.42 60.8a1.03 1.03 0 0 1-.84-.43C-1.5 47.64.8 38.07 2.22 34.53c.35-.88.46-1.84.32-2.77A98.78 98.78 0 0 1 1.4 18.3C1.41 9.32 7.91 2.03 15.94 2.03c1.62.01 3.21.31 4.7.88 2.09.8 4.49.8 6.57 0a13.4 13.4 0 0 1 4.7-.88c3.4.04 6.66 1.33 9.15 3.63a1.05 1.05 0 0 1-1.42 1.54 11.23 11.23 0 0 0-15.07-.36 1.01 1.01 0 0 1-1.33 0 11.39 11.39 0 0 0-7.31-2.73c-6.88 0-12.46 6.38-12.46 14.24.07 4.4.45 8.79 1.12 13.14.2 1.3.04 2.63-.45 3.85-1.04 2.6-2.6 8.84 1.34 17.43.7 1.54 2.94 1.2 3.53-.39a1.04 1.04 0 1 1 1.95.71 22.92 22.92 0 0 0-1.51 6.72 1.04 1.04 0 0 1-.73.98c-.1.03-.2.03-.3.02Z"/><path d="m19.9 48.01-.02-.01a.93.93 0 0 1-.51-.16l-8.82-5.25a1.42 1.42 0 0 1-.56-.47 1.04 1.04 0 0 1 .93-1.56c.25 0 .47.14.68.27l8.82 5.26a1.04 1.04 0 0 1-.5 1.94c-.02 0-.02-.01-.02-.02Zm5.3-7.46c-.27 0-.53-.12-.72-.31l-5.18-5.15a1.04 1.04 0 0 1 0-1.43l10.33-11.91a97.9 97.9 0 0 1 11.15-11l8.33-6.98a1.05 1.05 0 0 1 1.42.07L55.68 9a1.04 1.04 0 0 1 0 1.43l-6.96 8.34a98.02 98.02 0 0 1-10.92 11.2L25.9 40.3c-.19.16-.44.25-.7.25Zm-1.98-8.27a2.87 2.87 0 0 0 4.07 4.05l9.1-7.93A97.44 97.44 0 0 0 47.1 17.45l4.64-5.53a2.95 2.95 0 0 0-4.16-4.16l-5.52 4.62a95.2 95.2 0 0 0-10.94 10.75l-7.9 9.15Z"/></svg>