<svg width="80" height="47" xmlns="http://www.w3.org/2000/svg"><path d="M33.3 21.95c-4.15 0-7.56-3.94-7.56-8.78V3.61A3.01 3.01 0 0 1 28.75.6h9.12a3.01 3.01 0 0 1 3.02 3v9.57c0 4.84-3.41 8.78-7.58 8.78ZM28.76 3.13a.5.5 0 0 0-.51.51v9.57c0 3.42 2.28 6.28 5.13 6.28 2.86 0 5.14-2.81 5.14-6.28V3.6a.5.5 0 0 0-.52-.52l-9.24.04Z"/><path d="M45.95 21.95c-4.18 0-7.56-3.94-7.56-8.78V3.61a3.01 3.01 0 0 1 3-3.01h9.13a3.01 3.01 0 0 1 3 3v9.57c0 4.84-3.4 8.78-7.57 8.78ZM41.38 3.13a.5.5 0 0 0-.5.51v9.57c0 3.42 2.28 6.28 5.14 6.28s5.13-2.81 5.13-6.28V3.6a.5.5 0 0 0-.5-.52l-9.27.04Z"/><path d="M57.93 22.41c-3.8 0-6.85-3.6-6.85-7.99V5.87a2.82 2.82 0 0 1 2.83-2.81h8.2a2.82 2.82 0 0 1 2.82 2.8v8.56c-.07 4.4-3.19 8-7 8ZM53.83 5.5a.34.34 0 0 0-.32.32v8.56c0 3.03 1.99 5.5 4.42 5.5 2.43 0 4.43-2.47 4.43-5.5V5.81a.34.34 0 0 0-.33-.32h-8.2Zm-32.5 16.91c-3.82 0-6.85-3.6-6.85-7.99V5.87a2.82 2.82 0 0 1 2.83-2.81h8.18a2.82 2.82 0 0 1 2.82 2.8v8.56c-.07 4.4-3.17 8-6.98 8ZM17.23 5.5a.33.33 0 0 0-.32.32v8.56c0 3.03 1.99 5.5 4.42 5.5 2.43 0 4.41-2.47 4.41-5.5V5.81a.33.33 0 0 0-.32-.32h-8.18Zm20.64 41.45h-9.12a3.01 3.01 0 0 1-3-3.01v-9.57c0-4.84 3.41-8.77 7.56-8.77 4.14 0 7.58 3.93 7.58 8.77v9.57a3.01 3.01 0 0 1-3.02 3.01Zm-4.56-18.82c-2.8 0-5.14 2.8-5.14 6.28v9.56a.5.5 0 0 0 .52.52h9.12a.5.5 0 0 0 .5-.52v-9.56c.08-3.51-2.2-6.32-5-6.32v.04Z"/><path d="M50.52 46.95h-9.14a3.01 3.01 0 0 1-3-3.01v-9.57c0-4.84 3.43-8.77 7.57-8.77 4.14 0 7.56 3.93 7.56 8.77v9.57a3.01 3.01 0 0 1-3 3.01Zm-4.57-18.82c-2.79 0-5.13 2.8-5.13 6.28v9.56a.5.5 0 0 0 .5.52h9.13a.5.5 0 0 0 .5-.52v-9.56c.06-3.51-2.21-6.32-5-6.32v.04Z"/><path d="M62.03 44.54h-8.2a2.82 2.82 0 0 1-2.82-2.83v-8.55c0-4.4 3.12-8 6.85-8 3.73 0 6.93 3.6 6.93 8v8.55a2.82 2.82 0 0 1-2.76 2.83Zm-4.1-16.9c-2.43 0-4.42 2.46-4.42 5.48v8.56a.34.34 0 0 0 .33.34h8.2a.34.34 0 0 0 .32-.34v-8.56c0-3.02-1.99-5.49-4.43-5.49Zm-32.51 16.9h-8.18a2.82 2.82 0 0 1-2.83-2.83v-8.55c0-4.4 3.1-8 6.85-8 3.75 0 6.84 3.6 6.84 8v8.55a2.82 2.82 0 0 1-2.68 2.83Zm-4.1-16.9c-2.42 0-4.4 2.46-4.4 5.48v8.56a.33.33 0 0 0 .32.34h8.18a.33.33 0 0 0 .32-.34v-8.56c0-3.02-1.98-5.49-4.41-5.49Z"/><path d="M63.6 42.38a1.25 1.25 0 0 1-.25-2.46 16.55 16.55 0 0 0 0-32.43 1.25 1.25 0 0 1 .5-2.45 19.04 19.04 0 0 1 0 37.32l-.24.02Z"/><path d="M63.6 35.93a1.28 1.28 0 0 1-1.02-.53 1.23 1.23 0 0 1 .3-1.71 12.4 12.4 0 0 0 4.51-6.13 5.56 5.56 0 0 1 0-7.68 12.4 12.4 0 0 0-4.52-6.13 1.23 1.23 0 0 1-.29-1.7 1.25 1.25 0 0 1 1.71-.3 14.78 14.78 0 0 1 5.7 8.3 1.25 1.25 0 0 1-.58 1.39 2.96 2.96 0 0 0 0 4.6 1.25 1.25 0 0 1 .58 1.39 14.78 14.78 0 0 1-5.66 8.35c-.22.12-.47.17-.72.15Z"/><path d="M70.03 28.68a5.05 5.05 0 1 1 4.19-4.97 4.64 4.64 0 0 1-4.2 4.97Zm0-7.45c-.91 0-1.72 1.13-1.72 2.48s.77 2.47 1.72 2.47c.94 0 1.7-1.13 1.7-2.47 0-1.33-.78-2.48-1.7-2.48ZM15.66 42.38h-.25a19.04 19.04 0 0 1 0-37.32 1.25 1.25 0 0 1 .5 2.45 16.55 16.55 0 0 0 0 32.42 1.25 1.25 0 0 1-.25 2.47v-.02Z"/><path d="M15.66 35.93a1.3 1.3 0 0 1-.73-.24 14.87 14.87 0 0 1-5.7-8.3 1.25 1.25 0 0 1 .58-1.38 2.96 2.96 0 0 0 0-4.6 1.25 1.25 0 0 1-.58-1.4c.88-3.34 2.9-6.27 5.7-8.3a1.25 1.25 0 1 1 1.45 2.03 12.37 12.37 0 0 0-4.5 6.12 5.61 5.61 0 0 1 0 7.69c.82 2.46 2.4 4.6 4.5 6.12a1.23 1.23 0 0 1 .3 1.71 1.25 1.25 0 0 1-1.02.55Z"/><path d="M9.23 28.68a5.05 5.05 0 1 1 4.17-4.97 4.62 4.62 0 0 1-4.17 4.97Zm0-7.45c-.9 0-1.71 1.13-1.71 2.48s.77 2.47 1.71 2.47 1.71-1.13 1.71-2.47c0-1.33-.8-2.48-1.71-2.48Z"/></svg>