<svg width="46" height="46" viewBox="0 0 46 46" fill="none" xmlns="http://www.w3.org/2000/svg">
<path d="M23.3269 19.4914V25.9649H32.316C31.4793 30.0786 27.9772 32.4422 23.3269 32.4422C17.9105 32.3676 13.5588 27.9556 13.5588 22.5387C13.5588 17.1218 17.9105 12.7097 23.3269 12.6352C25.5784 12.6325 27.7604 13.4138 29.4985 14.8449L34.3756 9.96773C28.7811 5.04941 20.6107 4.41681 14.3258 8.41537C8.04093 12.4139 5.15197 20.0827 7.23645 27.2341C9.32093 34.3856 15.8779 39.3011 23.3269 39.2965C31.7063 39.2965 39.326 33.2019 39.326 22.5377C39.3131 21.511 39.1872 20.4888 38.9508 19.4895L23.3269 19.4914Z" fill="#2E3A59"/>
</svg>
