<svg width="46" height="46" viewBox="0 0 46 46" fill="none" xmlns="http://www.w3.org/2000/svg">
<path d="M22.7952 39.5346C18.1806 39.5346 17.6366 39.5102 15.8358 39.4314C14.4315 39.3852 13.0454 39.0997 11.7371 38.5873C9.47353 37.7064 7.68365 35.9158 6.80362 33.6519C6.31085 32.3389 6.04507 30.9516 6.01764 29.5495C5.9126 27.7524 5.9126 27.1634 5.9126 22.5845C5.9126 17.9568 5.93698 17.4165 6.01764 15.6251C6.04567 14.2248 6.31144 12.8395 6.80362 11.5283C7.6827 9.26137 9.47548 7.46927 11.7427 6.59105C13.0533 6.09621 14.4389 5.82973 15.8395 5.8032C17.631 5.7019 18.22 5.7019 22.7952 5.7019C27.4472 5.7019 27.9819 5.72629 29.7545 5.8032C31.1588 5.82996 32.5481 6.09641 33.8626 6.59105C36.1292 7.47026 37.9216 9.26202 38.8017 11.5283C39.3028 12.8586 39.57 14.2656 39.5914 15.687C39.6965 17.4841 39.6965 18.0712 39.6965 22.6482C39.6965 27.2253 39.6702 27.8256 39.5914 29.602C39.5635 31.0055 39.2971 32.394 38.8036 33.7082C37.9213 35.9737 36.1288 37.7649 33.8626 38.6454C32.55 39.1372 31.1635 39.403 29.762 39.4314C27.9706 39.5346 27.3835 39.5346 22.7952 39.5346ZM22.7314 8.67136C18.1431 8.67136 17.6666 8.69387 15.8752 8.77453C14.8059 8.7887 13.747 8.98602 12.7444 9.35792C11.2639 9.92444 10.0924 11.0912 9.51984 12.5694C9.14507 13.5829 8.94772 14.6534 8.93645 15.7339C8.83703 17.5516 8.83703 18.0281 8.83703 22.5845C8.83703 27.0865 8.85392 27.6324 8.93645 29.4388C8.95325 30.5084 9.15048 31.5675 9.51984 32.5714C10.0932 34.0486 11.2645 35.2145 12.7444 35.781C13.7463 36.1554 14.8057 36.3528 15.8752 36.3644C17.691 36.4694 18.1693 36.4694 22.7314 36.4694C27.3328 36.4694 27.8093 36.4469 29.5857 36.3644C30.6557 36.3514 31.7154 36.154 32.7184 35.781C34.1899 35.2096 35.3538 34.0464 35.926 32.5752C36.3001 31.5608 36.4974 30.4898 36.5094 29.4088H36.5301C36.6107 27.6155 36.6107 27.1371 36.6107 22.5545C36.6107 17.9718 36.5901 17.4897 36.5094 15.6983C36.4926 14.6299 36.2954 13.572 35.926 12.5694C35.3551 11.096 34.191 9.9306 32.7184 9.35792C31.7156 8.98414 30.6558 8.78676 29.5857 8.77453C27.7718 8.67136 27.2972 8.67136 22.7314 8.67136ZM22.7952 31.249C19.2873 31.2513 16.1236 29.14 14.7794 25.8999C13.4353 22.6598 14.1755 18.9291 16.6548 16.4476C19.1342 13.9661 22.8643 13.2227 26.1056 14.564C29.3468 15.9053 31.4608 19.0672 31.4615 22.5751C31.4564 27.3605 27.5805 31.2397 22.7952 31.249ZM22.7952 16.9438C19.6872 16.9438 17.1676 19.4633 17.1676 22.5713C17.1676 25.6793 19.6872 28.1989 22.7952 28.1989C25.9032 28.1989 28.4227 25.6793 28.4227 22.5713C28.4155 19.4663 25.9002 16.951 22.7952 16.9438ZM31.7992 15.6064C30.6839 15.6022 29.7825 14.6958 29.7845 13.5805C29.7866 12.4651 30.6914 11.562 31.8067 11.562C32.922 11.562 33.8268 12.4651 33.8289 13.5804C33.8294 14.1185 33.6156 14.6347 33.2347 15.0148C32.8539 15.395 32.3373 15.6078 31.7992 15.6064Z" fill="#2E3A59"/>
</svg>
