<svg width="46" height="46" viewBox="0 0 46 46" fill="none" xmlns="http://www.w3.org/2000/svg">
<path d="M36.9832 39.4443H9.36328C7.67473 39.4422 6.3067 38.0733 6.30566 36.3848V8.7649C6.30773 7.07708 7.67546 5.70934 9.36328 5.70728H36.9813C38.6697 5.70934 40.0385 7.07647 40.0427 8.7649V36.3848C40.0406 38.0736 38.672 39.4422 36.9832 39.4443ZM13.1806 18.2041L12.4528 20.8866H14.8501L13.3007 27.2007C13.1868 27.7001 13.124 28.2098 13.1131 28.722C13.0259 29.5462 13.3209 30.365 13.9137 30.9442C14.5065 31.5235 15.3318 31.7995 16.1538 31.6933C17.8979 31.6176 19.4646 30.6043 20.2488 29.0446L19.6354 31.4832H23.0325L24.9703 23.7153C25.458 21.727 26.4184 20.714 27.8197 20.714C28.3176 20.6768 28.8066 20.8603 29.1573 21.2156C29.508 21.571 29.6849 22.0625 29.6411 22.5598C29.6461 22.9293 29.5923 23.2971 29.4817 23.6497L28.4912 27.225C28.3484 27.7201 28.2764 28.2329 28.2774 28.7482C28.2237 29.5712 28.5388 30.3755 29.1372 30.9431C29.7356 31.5107 30.5554 31.7828 31.3744 31.6858C33.3065 31.6858 34.6534 30.3727 35.3831 27.7822L34.0568 27.2701C33.5391 28.7501 32.9876 29.4704 32.3686 29.4704C31.9165 29.4704 31.6783 29.1572 31.6783 28.5625C31.691 28.2506 31.7382 27.9411 31.819 27.6396L32.7944 24.1543C33.0156 23.4372 33.1294 22.6912 33.1321 21.9408C33.2436 20.9436 32.9297 19.9456 32.2674 19.1918C31.605 18.4381 30.6556 17.9984 29.6524 17.9809C27.6862 18.2494 25.9885 19.4927 25.1391 21.2861L25.8144 18.2529H20.5846L19.8511 20.8791H22.2784L20.7778 26.8593C20.2538 28.3284 18.9087 29.3472 17.3525 29.4535C17.2947 29.4544 17.2369 29.45 17.1799 29.4404C16.7241 29.3335 16.4596 29.159 16.4596 28.5925C16.4702 28.1243 16.5395 27.6592 16.6659 27.2082L18.947 18.2041H13.1806ZM17.5795 12.2727C16.849 12.2727 16.174 12.6624 15.8087 13.2951C15.4435 13.9277 15.4435 14.7071 15.8087 15.3397C16.174 15.9723 16.849 16.3621 17.5795 16.3621V16.3152C18.1264 16.3196 18.6529 16.1079 19.0445 15.7261C19.4285 15.347 19.6429 14.8288 19.6391 14.2892C19.6247 13.1647 18.7041 12.2633 17.5795 12.2727Z" fill="#2E3A59"/>
</svg>
