<svg width="58" height="52" viewBox="0 0 58 52" fill="none" xmlns="http://www.w3.org/2000/svg">
<path d="M34.8951 36.5196C34.7347 36.5243 34.578 36.4707 34.4542 36.3687C34.3983 36.326 34.3531 36.2709 34.3222 36.2077C34.2912 36.1446 34.2754 36.0751 34.276 36.0048V16.3421L24.7384 36.1694C24.6834 36.2749 24.5985 36.3619 24.4943 36.4194C24.39 36.4769 24.2712 36.5023 24.1525 36.4925H23.9895C23.8708 36.5023 23.752 36.4769 23.6477 36.4194C23.5435 36.3619 23.4586 36.2749 23.4036 36.1694L13.9324 16.8539V36.0063C13.932 36.0785 13.9157 36.1498 13.8846 36.215C13.8536 36.2803 13.8086 36.3379 13.7527 36.3838C13.6305 36.489 13.4746 36.5468 13.3134 36.5468C13.1521 36.5468 12.9962 36.489 12.874 36.3838C12.8182 36.3379 12.7732 36.2803 12.7421 36.215C12.7111 36.1498 12.6947 36.0785 12.6943 36.0063V14.1845C12.6966 14.1375 12.7079 14.0914 12.7276 14.0486C12.7621 13.9231 12.8398 13.8138 12.9469 13.7398C13.054 13.6658 13.1837 13.6319 13.3134 13.644C13.4322 13.6343 13.5512 13.6599 13.6554 13.7177C13.7596 13.7754 13.8445 13.8628 13.8992 13.9686L24.0544 34.7395L34.048 13.9943C34.1779 13.7255 34.3862 13.647 34.7275 13.647H34.8951C35.0605 13.6452 35.2211 13.7025 35.348 13.8086C35.4077 13.8523 35.4565 13.9093 35.4906 13.9751C35.5246 14.0408 35.543 14.1135 35.5443 14.1876V35.4945H37.2368V14.1845C37.2371 14.1122 37.2532 14.0408 37.284 13.9754C37.3148 13.9099 37.3595 13.8519 37.415 13.8056L37.5947 13.644H37.8544C38.0165 13.6401 38.174 13.6978 38.2952 13.8056C38.3505 13.8521 38.395 13.9101 38.4258 13.9756C38.4565 14.041 38.4728 14.1123 38.4734 14.1845V36.0063C38.474 36.0766 38.4582 36.1461 38.4273 36.2093C38.3963 36.2724 38.3511 36.3275 38.2952 36.3702C38.2646 36.3964 38.2312 36.4192 38.1956 36.4381C38.0891 36.4899 37.9727 36.5177 37.8544 36.5196C37.7463 36.5281 37.6378 36.5281 37.5297 36.5196H34.8951Z" fill="#1A3444"/>
<path d="M44.7571 13.5566C44.9169 13.5528 45.0727 13.6064 45.1964 13.7076C45.2523 13.7502 45.2975 13.8053 45.3285 13.8685C45.3594 13.9316 45.3752 14.0011 45.3746 14.0714C45.3743 14.1438 45.3582 14.2152 45.3274 14.2806C45.2966 14.3461 45.2519 14.404 45.1964 14.4504C45.0759 14.5583 44.9188 14.6161 44.7571 14.612H38.4746V35.5988C38.4768 35.6734 38.4617 35.7475 38.4306 35.8153C38.3994 35.8832 38.353 35.9429 38.2949 35.9898C38.1686 36.0858 38.0143 36.1378 37.8556 36.1378C37.6969 36.1378 37.5426 36.0858 37.4162 35.9898C37.3582 35.9429 37.3118 35.8832 37.2806 35.8153C37.2494 35.7475 37.2343 35.6734 37.2365 35.5988V14.1228C37.24 14.0381 37.266 13.956 37.3119 13.8848C37.3579 13.8137 37.422 13.7561 37.4977 13.7181C37.6247 13.6122 37.7853 13.5549 37.9507 13.5566H44.7571ZM40.0101 36.5711C39.8466 36.5725 39.6872 36.5193 39.5572 36.4201C39.4976 36.3799 39.4487 36.3257 39.4147 36.2623C39.3808 36.1989 39.3628 36.1282 39.3624 36.0563V24.4546C39.3636 24.381 39.3818 24.3086 39.4156 24.2431C39.4494 24.1776 39.4978 24.1208 39.5572 24.0772C39.6838 23.9706 39.8446 23.9133 40.0101 23.9156C40.1719 23.9107 40.3294 23.9686 40.4495 24.0772C40.5051 24.1232 40.5501 24.1808 40.5811 24.246C40.6121 24.3112 40.6285 24.3824 40.6292 24.4546V35.4931H44.7631C44.9249 35.4881 45.0824 35.546 45.2025 35.6546C45.2579 35.7007 45.3026 35.7584 45.3334 35.8236C45.3642 35.8888 45.3803 35.96 45.3806 36.0321C45.3812 36.1024 45.3654 36.1719 45.3345 36.2351C45.3036 36.2982 45.2584 36.3533 45.2025 36.396C45.0788 36.4972 44.9229 36.5507 44.7631 36.547L40.0101 36.5711ZM46.4873 13.6109C48.4099 13.5961 50.2983 14.1191 51.9394 15.1208C53.5905 16.1211 54.952 17.5352 55.8891 19.223C56.8649 20.9456 57.37 22.8947 57.3537 24.8744C57.3537 26.9157 56.866 29.1487 55.8891 30.8745C54.9512 32.5614 53.5892 33.9744 51.9379 34.9737C50.2968 35.9754 48.4084 36.4983 46.4858 36.4835C46.326 36.4873 46.1702 36.4338 46.0465 36.3326C45.9908 36.2867 45.946 36.229 45.9152 36.1638C45.8844 36.0985 45.8685 36.0273 45.8685 35.9551C45.8685 35.8829 45.8844 35.8117 45.9152 35.7464C45.946 35.6812 45.9908 35.6235 46.0465 35.5776C46.1702 35.4764 46.326 35.4229 46.4858 35.4267C48.1879 35.4374 49.8582 34.9663 51.3037 34.0678C52.7807 33.1603 53.9896 31.8764 54.8066 30.3475C55.6627 28.7743 56.0915 26.7164 56.0915 24.8729C56.1045 23.0829 55.6624 21.3191 54.8066 19.7469C53.9907 18.2179 52.7828 16.9335 51.3068 16.0252C49.8612 15.1266 48.1909 14.6555 46.4889 14.6663C46.3264 14.6699 46.169 14.6103 46.0495 14.5002C45.9939 14.4543 45.9491 14.3966 45.9183 14.3314C45.8875 14.2661 45.8714 14.1949 45.8713 14.1228C45.8707 14.0525 45.8865 13.983 45.9175 13.9198C45.9484 13.8567 45.9936 13.8016 46.0495 13.7589C46.1716 13.6605 46.3245 13.6081 46.4813 13.6109H46.4873Z" fill="#1A3444"/>
<path fill-rule="evenodd" clip-rule="evenodd" d="M41.7861 7.12166C41.9745 7.03239 42.1527 6.92305 42.3176 6.79553C42.3176 6.79553 42.1243 6.92236 41.7861 7.12166ZM27.0757 5.42158C15.6779 0.753145 8.39746 -2.45074 3.59465 3.91174C-0.395861 9.19618 -1.03603 17.5079 1.53523 28.3546C3.84529 38.1051 8.66924 44.7001 12.3804 48.2649C16.004 51.7375 20.7691 52.9454 23.9141 50.7365C25.4481 49.6569 26.3525 48.6604 27.7597 46.068C28.541 44.5897 29.1402 43.0221 29.5443 41.3996C29.5443 41.3996 24.7385 51.4235 19.2457 49.2266C13.7529 47.0298 7.53383 39.9487 4.9671 26.5684C3.17039 17.2059 4.28163 5.42158 9.63704 4.04913C14.9925 2.67668 22.1325 6.38939 27.0757 7.75579C32.019 9.1222 36.0019 9.54194 38.3361 8.71756C39.5327 8.29256 40.6875 7.75834 41.7861 7.12166C40.3925 7.82072 36.1046 9.12069 27.0757 5.42158Z" fill="#38BCEA"/>
<path fill-rule="evenodd" clip-rule="evenodd" d="M49.3214 3.3695C45.8986 1.03378 42.8215 1.13192 40.67 1.30253C36.6418 1.6211 33.3926 3.49935 33.3926 3.49935C33.3926 3.49935 40.3877 1.47314 45.4713 3.91153C49.9646 6.06155 50.2771 9.81653 50.2771 9.81653C50.2771 9.81653 51.2721 10.0339 52.782 10.9489C54.2209 11.8246 54.5606 12.2776 54.5606 12.2776C54.5606 12.2776 53.4478 6.1612 49.3214 3.3695Z" fill="#38BCEA"/>
</svg>
